<?xml version="1.0" standalone="no"?>
<!DOCTYPE svg PUBLIC "-//W3C//DTD SVG 20010904//EN"
 "http://www.w3.org/TR/2001/REC-SVG-20010904/DTD/svg10.dtd">
<svg version="1.0" xmlns="http://www.w3.org/2000/svg"
 width="260.000000pt" height="260.000000pt" viewBox="0 0 260.000000 260.000000"
 preserveAspectRatio="xMidYMid meet">
<metadata>
Created by potrace 1.11, written by Peter Selinger 2001-2013
</metadata>
<g transform="translate(0.000000,260.000000) scale(0.100000,-0.100000)"
fill="#000000" stroke="none">
<path d="M1156 2590 c-304 -38 -559 -162 -771 -375 -186 -186 -301 -398 -356
-658 -31 -144 -31 -370 0 -514 110 -521 496 -904 1026 -1019 110 -24 379 -24
490 0 525 112 913 495 1027 1016 28 126 30 385 4 505 -100 463 -410 823 -844
979 -160 57 -414 87 -576 66z m-171 -911 c135 -41 203 -149 193 -304 -9 -131
-84 -224 -209 -259 -33 -10 -95 -16 -156 -16 -83 0 -102 -3 -107 -16 -3 -9 -6
-60 -6 -115 l0 -99 -125 0 -125 0 0 415 0 415 234 0 c209 0 241 -2 301 -21z
m575 -138 c0 -88 4 -162 8 -165 5 -3 69 69 142 159 l134 165 140 0 c132 0 138
-1 124 -17 -8 -10 -70 -81 -138 -158 -67 -77 -126 -149 -130 -159 -5 -15 30
-75 147 -253 84 -128 153 -235 153 -238 0 -3 -65 -5 -144 -5 l-144 0 -40 63
c-154 244 -151 241 -174 220 -12 -10 -34 -36 -49 -57 -27 -36 -29 -45 -29
-133 l0 -93 -125 0 -125 0 0 415 0 415 125 0 125 0 0 -159z"/>
<path d="M707 1516 c-9 -22 -9 -209 -1 -230 5 -12 20 -16 63 -16 71 0 123 14
146 40 26 29 32 118 11 158 -22 43 -46 53 -136 59 -66 5 -78 3 -83 -11z"/>
</g>
</svg>
