<?xml version="1.0" encoding="utf-8"?>
<!-- Generator: Adobe Illustrator 15.1.0, SVG Export Plug-In . SVG Version: 6.00 Build 0)  -->
<!DOCTYPE svg PUBLIC "-//W3C//DTD SVG 1.1//EN" "http://www.w3.org/Graphics/SVG/1.1/DTD/svg11.dtd">
<svg version="1.1" id="Layer_1" xmlns="http://www.w3.org/2000/svg" xmlns:xlink="http://www.w3.org/1999/xlink" x="0px" y="0px"
	 width="461.512px" height="85.04px" viewBox="0 0 461.512 85.04" enable-background="new 0 0 461.512 85.04" xml:space="preserve">
<g>
	<g>
		<path fill="#221E20" d="M133.929,51.933l-2.061,5.542c-0.498,1.42-0.781,1.917-1.35,2.344c-0.498,0.355-1.065,0.64-1.705,0.64
			c-0.852,0-1.705-0.355-2.273-0.924c-1.208-1.207-0.781-2.486-0.213-4.121l12.646-33.603c0.426-1.208,0.781-1.705,1.279-2.131
			c0.639-0.568,1.279-0.853,2.273-0.853c0.995,0,1.705,0.284,2.274,0.853c0.497,0.497,0.781,0.923,1.278,2.131l12.646,33.603
			c0.639,1.635,0.995,2.914-0.213,4.121c-0.568,0.568-1.421,0.924-2.274,0.924c-0.639,0-1.279-0.214-1.705-0.64
			c-0.568-0.497-0.852-0.995-1.35-2.344l-2.06-5.542H133.929z M142.524,28.56l-6.607,18.044h13.214L142.524,28.56z"/>
		<path fill="#221E20" d="M180.462,34.599c0-1.421,0.071-1.918,0.426-2.629c0.427-0.781,1.279-1.421,2.487-1.421
			c1.279,0,2.131,0.64,2.486,1.421c0.355,0.71,0.426,1.208,0.426,2.629v21.739c0,1.634-0.142,2.132-0.497,2.843
			c-0.498,0.781-1.421,1.278-2.416,1.278c-0.924,0-1.847-0.355-2.416-1.137c-0.284-0.427-0.498-0.853-0.498-1.918
			c-1.989,2.131-4.831,3.196-7.744,3.196c-2.983,0-5.47-0.994-7.247-2.629c-2.273-2.201-2.983-4.973-2.983-8.24V34.599
			c0-1.421,0.071-1.918,0.426-2.629c0.426-0.781,1.278-1.421,2.486-1.421c1.279,0,2.132,0.64,2.487,1.421
			c0.355,0.71,0.426,1.208,0.426,2.629v14.067c0,4.546,2.629,6.465,5.897,6.465c3.268,0,6.109-1.989,6.109-6.465V34.599H180.462z"/>
		<path fill="#221E20" d="M216.624,59.89c-0.568,0.354-1.065,0.497-1.634,0.497c-1.35,0-1.989-0.781-2.842-2.202l-7.104-11.367
			l-4.476,5.187v4.333c0,1.421-0.071,1.919-0.426,2.629c-0.426,0.781-1.279,1.421-2.486,1.421c-1.279,0-2.131-0.64-2.487-1.421
			c-0.355-0.71-0.426-1.208-0.426-2.629V22.734c0-1.42,0.071-1.918,0.426-2.628c0.426-0.781,1.279-1.421,2.487-1.421
			c1.279,0,2.131,0.64,2.486,1.421c0.355,0.71,0.426,1.208,0.426,2.628v21.598l10.586-12.078c1.065-1.279,1.776-1.705,2.699-1.705
			c0.64,0,1.279,0.213,1.847,0.71c0.71,0.639,0.924,1.208,0.924,1.918c0,0.782-0.284,1.492-1.35,2.629l-6.039,6.891l7.815,12.362
			c0.71,1.137,0.995,1.776,0.995,2.486C217.974,58.541,217.476,59.392,216.624,59.89z"/>
		<path fill="#221E20" d="M234.739,30.478c2.628,0,4.476,0.568,6.395,1.847c1.563,0.995,2.842,2.061,2.842,3.552
			c0,0.711-0.285,1.421-0.853,1.918c-0.427,0.426-1.137,0.782-1.848,0.782c-0.781,0-1.349-0.285-2.344-1.137
			c-1.493-1.208-2.629-1.634-4.263-1.634c-2.345,0-4.05,0.853-5.329,2.486c-1.279,1.705-1.776,3.766-1.776,7.176
			s0.497,5.471,1.776,7.176s3.054,2.558,5.329,2.558c1.634,0,2.841-0.498,4.263-1.634c0.995-0.782,1.563-1.138,2.344-1.138
			c0.711,0,1.421,0.355,1.848,0.781c0.497,0.568,0.853,1.209,0.853,1.919c0,1.492-1.42,2.558-2.842,3.552
			c-1.848,1.208-3.767,1.848-6.395,1.848c-6.678,0-13.001-4.05-13.001-14.99C221.667,34.527,228.062,30.478,234.739,30.478z"/>
		<path fill="#221E20" d="M260.6,30.478c7.673,0,12.22,5.612,12.434,13.356c0,0.853-0.071,1.918-0.783,2.628
			c-0.781,0.782-1.705,0.782-2.629,0.782h-15.629c0,4.973,2.628,8.24,7.531,8.24c2.06,0,4.049-0.568,5.611-1.847
			c0.924-0.711,1.634-1.065,2.417-1.065c1.207,0,2.415,1.137,2.415,2.486s-1.491,2.629-2.984,3.552
			c-1.848,1.208-4.547,1.848-7.673,1.848c-7.317,0-13.214-3.836-13.214-14.99C248.096,35.877,253.068,30.478,260.6,30.478z
			 M266.354,39.145c-0.994-2.202-2.982-3.694-5.754-3.694c-2.842,0-4.831,1.492-5.825,3.694c-0.569,1.279-0.711,2.203-0.782,3.979
			h13.143C267.063,41.348,266.923,40.353,266.354,39.145z"/>
		<path fill="#221E20" d="M285.253,60.174c-0.924,0-2.062,0-2.914-0.923c-0.853-0.924-0.924-1.99-0.924-2.914V22.805
			c0-0.924,0-2.061,0.924-2.913c0.924-0.923,1.99-0.923,2.914-0.923h12.219c7.673,0,12.432,4.334,12.432,11.296
			c0,4.476-2.77,7.673-5.54,8.739c3.196,1.278,6.181,4.333,6.181,9.52c0,7.602-5.186,11.651-12.433,11.651H285.253z M296.902,36.446
			c3.979,0,6.751-2.132,6.751-5.968c0-3.837-2.7-5.968-6.751-5.968h-9.234v11.864h9.234V36.446z M287.668,41.987v12.646h9.875
			c4.334,0,6.749-2.699,6.749-6.394c0-3.623-2.415-6.252-6.749-6.252H287.668z"/>
		<path fill="#221E20" d="M327.665,66.071c-0.567,1.634-1.208,2.771-2.132,3.624c-1.634,1.563-3.622,2.202-5.754,2.202
			c-0.995,0-2.131-0.143-2.7-0.711c-0.496-0.498-0.853-1.065-0.853-1.989s0.285-1.635,0.924-2.061
			c0.498-0.427,0.995-0.568,1.989-0.568c1.705,0,2.983-0.711,3.765-3.126l1.422-4.333l-8.241-23.871
			c-0.354-1.065-0.64-1.918-0.283-2.842c0.283-0.924,1.42-1.776,2.769-1.776c1.776,0,2.346,1.279,2.843,2.842l5.755,17.974
			l5.896-17.974c0.497-1.563,1.066-2.842,2.843-2.842c1.349,0,2.486,0.853,2.769,1.776c0.285,0.924,0.071,1.776-0.282,2.842
			L327.665,66.071z"/>
		<path fill="#221E20" d="M365.815,56.337c0,1.634-0.141,2.132-0.497,2.843c-0.498,0.781-1.42,1.278-2.415,1.278
			c-0.924,0-1.848-0.355-2.417-1.137c-0.283-0.427-0.496-0.853-0.496-2.061c-2.202,2.558-4.618,3.339-7.673,3.339
			c-2.984,0-5.542-0.994-7.176-2.629c-2.842-2.912-3.268-7.601-3.268-12.432c0-4.832,0.426-9.521,3.268-12.362
			c1.634-1.634,4.191-2.628,7.104-2.628c3.126,0,5.542,0.782,7.673,3.268V22.734c0-1.42,0.071-1.918,0.427-2.628
			c0.426-0.781,1.278-1.421,2.486-1.421c1.278,0,2.131,0.64,2.486,1.421c0.356,0.71,0.426,1.208,0.426,2.628v33.604H365.815z
			 M353.81,55.202c5.328,0,6.109-4.477,6.109-9.662c0-5.187-0.781-9.663-6.109-9.663c-5.329,0-6.11,4.476-6.11,9.663
			C347.699,50.725,348.48,55.202,353.81,55.202z"/>
		<path fill="#221E20" d="M373.844,22.734c0-1.42,0.071-1.918,0.427-2.628c0.426-0.781,1.278-1.421,2.486-1.421
			c1.277,0,2.13,0.64,2.486,1.421c0.355,0.71,0.426,1.208,0.426,2.628v29.058c0,2.06,0.782,3.339,2.984,3.41
			c0.923,0,1.634,0.142,2.132,0.426c0.71,0.355,1.207,1.065,1.207,2.061c0,0.994-0.497,1.704-1.207,2.06
			c-0.498,0.285-1.279,0.497-2.488,0.497h-0.567c-5.542,0-7.957-3.836-7.957-8.099V22.734H373.844z"/>
		<path fill="#221E20" d="M400.982,30.478c7.672,0,12.22,5.612,12.433,13.356c0,0.853-0.071,1.918-0.781,2.628
			c-0.781,0.782-1.705,0.782-2.629,0.782h-15.629c0,4.973,2.629,8.24,7.53,8.24c2.061,0,4.049-0.568,5.612-1.847
			c0.924-0.711,1.635-1.065,2.416-1.065c1.206,0,2.415,1.137,2.415,2.486s-1.492,2.629-2.983,3.552
			c-1.848,1.208-4.547,1.848-7.674,1.848c-7.316,0-13.214-3.836-13.214-14.99C388.549,35.877,393.523,30.478,400.982,30.478z
			 M406.808,39.145c-0.993-2.202-2.983-3.694-5.754-3.694c-2.843,0-4.83,1.492-5.825,3.694c-0.569,1.279-0.712,2.203-0.781,3.979
			h13.213C407.519,41.348,407.377,40.353,406.808,39.145z"/>
		<path fill="#221E20" d="M425.92,56.409c0,1.421-0.071,1.919-0.428,2.629c-0.425,0.781-1.277,1.421-2.486,1.421
			c-1.279,0-2.132-0.64-2.486-1.421c-0.355-0.71-0.427-1.208-0.427-2.629V34.669c0-1.634,0.143-2.131,0.498-2.842
			c0.497-0.782,1.421-1.279,2.415-1.279c0.924,0,1.848,0.355,2.415,1.137c0.285,0.426,0.499,0.853,0.499,1.918
			c2.059-2.131,4.83-3.197,7.743-3.197c2.983,0,5.47,0.995,7.245,2.628c2.274,2.203,2.984,4.973,2.984,8.241v14.99
			c0,1.422-0.07,1.919-0.425,2.629c-0.428,0.782-1.279,1.421-2.488,1.421c-1.277,0-2.13-0.639-2.486-1.421
			c-0.354-0.71-0.425-1.207-0.425-2.629V42.271c0-4.546-2.629-6.465-5.898-6.465c-3.268,0-6.109,1.989-6.109,6.465v14.138H425.92z"
			/>
		<path fill="#221E20" d="M457.179,59.038c-0.427,0.781-1.279,1.421-2.486,1.421c-1.279,0-2.132-0.64-2.488-1.421
			c-0.354-0.71-0.425-1.208-0.425-2.629v-21.81c0-1.421,0.071-1.918,0.425-2.629c0.428-0.781,1.279-1.421,2.488-1.421
			c1.277,0,2.13,0.64,2.486,1.421c0.354,0.71,0.426,1.208,0.426,2.629v21.739C457.604,57.83,457.533,58.328,457.179,59.038z
			 M457.889,24.013c-0.427,0.64-0.853,1.279-1.279,1.563c-0.426,0.284-0.853,0.498-1.35,0.498c-0.498,0-0.924-0.142-1.42-0.426
			c-0.924-0.568-1.279-1.35-1.279-2.203c0-0.639,0.284-1.065,0.923-2.131l2.7-4.334c0.426-0.639,0.853-1.279,1.278-1.563
			c0.427-0.284,0.853-0.497,1.351-0.497c0.426,0,0.924,0.142,1.42,0.426c0.924,0.569,1.279,1.35,1.279,2.203
			c0,0.639-0.284,1.065-0.923,2.131L457.889,24.013z"/>
	</g>
	<path fill="#B3DBD7" d="M97.98,49.518c-0.213-1.421-0.853-2.629-1.847-3.624c-0.64-0.639-1.279-1.207-1.989-1.776
		c-1.848-1.562-3.766-3.125-5.613-4.759c-1.989-1.705-4.049-3.41-6.039-5.115c-0.853-0.782-1.847-1.421-2.913-1.776
		c-1.208-0.355-2.416-0.498-3.624-0.498c-1.066,0-2.06,0.071-3.126,0.284c-2.131,0.355-4.191,1.137-6.11,1.989
		c-2.7,1.208-5.399,2.345-8.099,3.481c-2.273,0.994-4.547,1.989-6.82,2.983c-2.345,0.995-4.618,1.989-6.962,2.984
		c-1.705,0.781-3.481,1.492-5.187,2.345c-3.125,1.563-5.967,3.481-8.383,6.039c-1.137,1.207-2.203,2.486-2.984,3.979
		c-1.847,3.338-3.765,6.678-5.612,10.017c-2.344,4.191-4.618,8.313-6.962,12.504c-0.498,0.923-0.782,1.847-0.711,2.913
		c0.143,1.207,0.853,2.06,1.848,2.629c1.208,0.71,2.557,0.923,3.979,0.923c8.454,0,16.908,0,25.292,0c8.454,0,16.908,0,25.363,0
		c0.853,0,1.634-0.07,2.486-0.213C76.596,84.4,78.94,83.334,81,81.772c1.137-0.853,2.131-1.776,2.771-3.056
		c4.263-7.602,8.455-15.132,12.717-22.733C97.696,53.994,98.406,51.862,97.98,49.518z"/>
	<path fill="#7FC7BF" d="M90.521,33.461c-0.213-1.42-0.853-2.628-1.847-3.623c-0.639-0.639-1.279-1.208-1.989-1.705
		c-1.847-1.563-3.765-3.126-5.612-4.76c-1.989-1.705-4.05-3.41-6.039-5.115c-0.853-0.782-1.847-1.421-2.913-1.776
		c-1.208-0.355-2.416-0.498-3.624-0.498c-1.065,0-2.06,0.142-3.125,0.284c-2.131,0.355-4.191,1.137-6.11,1.989
		c-2.7,1.208-5.399,2.344-8.099,3.481c-2.273,0.995-4.546,1.99-6.82,2.984c-2.344,0.995-4.618,1.989-6.962,2.984
		c-1.776,0.781-3.481,1.492-5.186,2.344c-3.126,1.563-5.968,3.481-8.384,6.039c-1.137,1.208-2.202,2.487-2.983,3.979
		c-1.847,3.339-3.766,6.678-5.613,10.017c-2.344,4.121-4.618,8.313-6.962,12.504c-0.497,0.924-0.781,1.848-0.71,2.913
		c0.142,1.207,0.853,2.06,1.847,2.629c1.208,0.711,2.558,0.923,3.979,0.923c8.454,0,16.909,0,25.292,0c8.454,0,16.908,0,25.362,0
		c0.853,0,1.634-0.07,2.486-0.212c2.629-0.428,4.974-1.492,7.034-3.056c1.137-0.853,2.131-1.775,2.771-3.055
		c4.262-7.602,8.454-15.133,12.716-22.734C90.236,37.938,90.947,35.806,90.521,33.461z"/>
	<path fill="#37B39B" d="M83.061,17.477c-0.213-1.42-0.853-2.628-1.847-3.623c-0.64-0.639-1.279-1.208-1.989-1.705
		c-1.847-1.563-3.766-3.126-5.612-4.76c-2.061-1.705-4.05-3.41-6.11-5.115c-0.853-0.781-1.847-1.421-2.913-1.776
		C63.382,0.142,62.174,0,60.966,0c-1.065,0-2.061,0.071-3.126,0.284c-2.131,0.355-4.192,1.137-6.11,1.989
		c-2.7,1.208-5.399,2.344-8.099,3.552c-2.273,0.995-4.546,1.989-6.82,2.984c-2.344,0.995-4.617,1.989-6.962,2.983
		c-1.776,0.782-3.481,1.492-5.187,2.345c-3.126,1.563-5.968,3.481-8.383,6.039c-1.136,1.208-2.202,2.487-2.983,3.979
		c-1.847,3.339-3.766,6.678-5.612,10.018c-2.345,4.12-4.618,8.241-6.962,12.432c-0.498,0.924-0.782,1.848-0.71,2.914
		c0.142,1.207,0.853,2.06,1.847,2.628c1.208,0.711,2.558,0.924,3.978,0.924c8.455,0,16.909,0,25.292,0c8.455,0,16.909,0,25.363,0
		c0.853,0,1.634-0.071,2.487-0.213c2.628-0.427,4.973-1.492,7.033-3.056c1.137-0.853,2.131-1.775,2.771-3.055
		c4.262-7.602,8.454-15.132,12.717-22.734C82.777,21.953,83.416,19.821,83.061,17.477z"/>
</g>
</svg>
