<?xml version="1.0" encoding="utf-8"?>
<!-- Generator: Adobe Illustrator 15.1.0, SVG Export Plug-In . SVG Version: 6.00 Build 0)  -->
<!DOCTYPE svg PUBLIC "-//W3C//DTD SVG 1.1//EN" "http://www.w3.org/Graphics/SVG/1.1/DTD/svg11.dtd">
<svg version="1.1" id="Layer_1" xmlns="http://www.w3.org/2000/svg" xmlns:xlink="http://www.w3.org/1999/xlink" x="0px" y="0px"
	 width="331.45px" height="85.039px" viewBox="232.065 59.54 331.45 85.039" enable-background="new 232.065 59.54 331.45 85.039"
	 xml:space="preserve">
<g>
	<path fill="#357DA8" d="M366.474,126.021c0-3.586,2.643-6.037,6.004-6.037c2.065,0,3.498,0.98,4.427,2.311l-1.206,0.684
		c-0.666-0.998-1.891-1.697-3.221-1.697c-2.557,0-4.496,1.943-4.496,4.744c0,2.766,1.939,4.74,4.496,4.74
		c1.33,0,2.555-0.716,3.221-1.695l1.224,0.666c-0.979,1.345-2.378,2.326-4.442,2.326
		C369.116,132.059,366.474,129.609,366.474,126.021z"/>
	<path fill="#357DA8" d="M378.232,127.611c0-2.448,1.61-4.426,4.185-4.426s4.183,1.978,4.183,4.426c0,2.451-1.608,4.447-4.183,4.447
		S378.232,130.063,378.232,127.611z M385.217,127.611c0-1.713-0.999-3.254-2.801-3.254c-1.804,0-2.8,1.539-2.8,3.254
		c0,1.733,0.996,3.273,2.8,3.273C384.218,130.887,385.217,129.346,385.217,127.611z"/>
	<path fill="#357DA8" d="M394.456,131.85v-5.531c0-1.504-0.771-1.959-1.909-1.959c-1.03,0-1.995,0.632-2.503,1.313v6.178h-1.311
		v-8.453h1.311v1.224c0.596-0.715,1.751-1.433,3.027-1.433c1.751,0,2.679,0.893,2.679,2.73v5.932H394.456z"/>
	<path fill="#357DA8" d="M398.655,130.081v-5.531h-1.401v-1.153h1.401v-2.311h1.328v2.311h1.714v1.153h-1.714v5.252
		c0,0.632,0.277,1.084,0.84,1.084c0.386,0,0.718-0.175,0.892-0.366l0.388,0.998c-0.335,0.313-0.808,0.541-1.558,0.541
		C399.285,132.059,398.655,131.343,398.655,130.081z"/>
	<path fill="#357DA8" d="M403.044,127.611c0-2.448,1.748-4.426,4.168-4.426c2.554,0,4.059,1.994,4.059,4.531v0.334h-6.824
		c0.104,1.592,1.206,2.924,3.026,2.924c0.979,0,1.943-0.387,2.625-1.084l0.63,0.855c-0.856,0.843-1.994,1.313-3.358,1.313
		C404.846,132.059,403.044,130.258,403.044,127.611z M407.193,124.271c-1.803,0-2.695,1.522-2.768,2.802h5.547
		C409.958,125.829,409.117,124.271,407.193,124.271z"/>
	<path fill="#357DA8" d="M419.107,131.85v-5.531c0-1.504-0.768-1.959-1.904-1.959c-1.033,0-1.997,0.632-2.503,1.313v6.178h-1.315
		v-8.453h1.315v1.224c0.594-0.715,1.748-1.433,3.026-1.433c1.748,0,2.68,0.893,2.68,2.73v5.932H419.107z"/>
	<path fill="#357DA8" d="M423.308,130.081v-5.531h-1.4v-1.153h1.4v-2.311h1.328v2.311h1.714v1.153h-1.714v5.252
		c0,0.632,0.281,1.084,0.844,1.084c0.383,0,0.715-0.175,0.891-0.366l0.386,0.998c-0.332,0.313-0.806,0.541-1.558,0.541
		C423.938,132.059,423.308,131.343,423.308,130.081z"/>
	<path fill="#357DA8" d="M432.774,131.85v-11.674h3.988c3.641,0,5.983,2.537,5.983,5.846c0,3.324-2.344,5.828-5.983,5.828H432.774
		L432.774,131.85z M441.243,126.021c0-2.521-1.592-4.552-4.479-4.552h-2.537v9.085h2.537
		C439.597,130.555,441.243,128.523,441.243,126.021z"/>
	<path fill="#357DA8" d="M444.478,127.611c0-2.448,1.75-4.426,4.165-4.426c2.557,0,4.061,1.994,4.061,4.531v0.334h-6.826
		c0.105,1.592,1.209,2.924,3.03,2.924c0.979,0,1.942-0.387,2.627-1.084l0.627,0.855c-0.856,0.843-1.994,1.313-3.359,1.313
		C446.282,132.059,444.478,130.258,444.478,127.611z M448.625,124.271c-1.802,0-2.695,1.522-2.766,2.802h5.547
		C451.392,125.829,450.552,124.271,448.625,124.271z"/>
	<path fill="#357DA8" d="M454.82,131.85v-11.674h1.313v11.674H454.82z"/>
	<path fill="#357DA8" d="M458.528,121.313c0-0.488,0.402-0.893,0.894-0.893s0.874,0.403,0.874,0.893
		c0,0.492-0.383,0.875-0.874,0.875S458.528,121.805,458.528,121.313z M458.757,131.85v-8.453h1.313v8.453H458.757z"/>
	<path fill="#357DA8" d="M464.952,131.85l-3.52-8.453h1.435l2.803,6.932l2.814-6.932h1.421l-3.519,8.453H464.952z"/>
	<path fill="#357DA8" d="M470.777,127.611c0-2.448,1.75-4.426,4.165-4.426c2.556,0,4.06,1.994,4.06,4.531v0.334h-6.826
		c0.105,1.592,1.209,2.924,3.027,2.924c0.98,0,1.946-0.387,2.627-1.084l0.63,0.855c-0.855,0.843-1.994,1.313-3.359,1.313
		C472.581,132.059,470.777,130.258,470.777,127.611z M474.924,124.271c-1.802,0-2.694,1.522-2.764,2.802h5.547
		C477.688,125.829,476.851,124.271,474.924,124.271z"/>
	<path fill="#357DA8" d="M481.119,131.85v-8.453h1.313v1.348c0.682-0.874,1.662-1.54,2.817-1.54v1.347
		c-0.159-0.017-0.315-0.033-0.508-0.033c-0.82,0-1.924,0.664-2.311,1.349v5.983H481.119L481.119,131.85z"/>
	<path fill="#357DA8" d="M486.631,133.967c0.19,0.088,0.505,0.141,0.715,0.141c0.579,0,0.965-0.192,1.264-0.895l0.559-1.275
		l-3.535-8.541h1.435l2.8,6.932l2.819-6.932h1.416l-4.235,10.168c-0.508,1.226-1.364,1.697-2.485,1.715
		c-0.278,0-0.715-0.053-0.943-0.122L486.631,133.967z"/>
	<path fill="#357DA8" d="M508.311,131.85l-6.807-9.311v9.311h-1.453v-11.674h1.487l6.721,9.119v-9.119h1.45v11.674H508.311z"/>
	<path fill="#357DA8" d="M511.897,127.611c0-2.448,1.748-4.426,4.164-4.426c2.555,0,4.062,1.994,4.062,4.531v0.334h-6.826
		c0.104,1.592,1.208,2.924,3.027,2.924c0.98,0,1.942-0.387,2.627-1.084l0.63,0.855c-0.857,0.843-1.995,1.313-3.359,1.313
		C513.697,132.059,511.897,130.258,511.897,127.611z M516.042,124.271c-1.802,0-2.692,1.522-2.766,2.802h5.549
		C518.809,125.829,517.969,124.271,516.042,124.271z"/>
	<path fill="#357DA8" d="M522.498,130.081v-5.531h-1.396v-1.153h1.396v-2.311h1.331v2.311h1.716v1.153h-1.716v5.252
		c0,0.632,0.28,1.084,0.84,1.084c0.386,0,0.718-0.175,0.895-0.366l0.386,0.998c-0.335,0.313-0.807,0.541-1.559,0.541
		C523.13,132.059,522.498,131.343,522.498,130.081z"/>
	<path fill="#357DA8" d="M534.698,131.85l-2.207-6.791l-2.204,6.791h-1.314l-2.694-8.453h1.364l2.065,6.738l2.222-6.738h1.139
		l2.207,6.738l2.063-6.738h1.381l-2.694,8.453H534.698z"/>
	<path fill="#357DA8" d="M539.734,127.611c0-2.448,1.608-4.426,4.186-4.426c2.57,0,4.182,1.978,4.182,4.426
		c0,2.451-1.61,4.447-4.182,4.447C541.343,132.059,539.734,130.063,539.734,127.611z M546.717,127.611
		c0-1.713-0.999-3.254-2.798-3.254c-1.805,0-2.801,1.539-2.801,3.254c0,1.733,0.996,3.273,2.801,3.273
		C545.718,130.887,546.717,129.346,546.717,127.611z"/>
	<path fill="#357DA8" d="M550.235,131.85v-8.453h1.312v1.348c0.685-0.874,1.662-1.54,2.817-1.54v1.347
		c-0.156-0.017-0.315-0.033-0.508-0.033c-0.82,0-1.925,0.664-2.311,1.349v5.983H550.235L550.235,131.85z"/>
	<path fill="#357DA8" d="M561.766,131.85l-3.029-3.798l-1.416,1.382v2.416h-1.313v-11.674h1.313v7.719l4.445-4.498h1.66l-3.745,3.83
		l3.766,4.623H561.766L561.766,131.85z"/>
</g>
<g>
	<path fill="#142C3F" d="M321.868,92.563c0-9.869,7.57-16.528,17.583-16.528c8.386,0,12.603,4.887,14.519,9.294l-8.337,3.881
		c-0.813-2.491-3.306-4.648-6.18-4.648c-4.648,0-7.761,3.549-7.761,8.002c0,4.455,3.114,8.002,7.761,8.002
		c2.874,0,5.366-2.155,6.18-4.647l8.337,3.833c-1.87,4.264-6.135,9.343-14.519,9.343
		C329.438,109.095,321.868,102.386,321.868,92.563z"/>
	<path fill="#142C3F" d="M356.985,108.52V76.563h14.276c10.062,0,17.536,5.748,17.536,15.953c0,10.207-7.476,16.004-17.487,16.004
		H356.985z M378.977,92.516c0-4.313-2.489-7.521-7.666-7.521h-4.647v15.092h4.602C376.103,100.086,378.977,96.541,378.977,92.516z"
		/>
	<path fill="#142C3F" d="M413.713,108.52l-11.79-16.194v16.194h-9.675V76.563h9.966l11.116,15.141V76.563h9.678v31.957H413.713
		L413.713,108.52z"/>
	<path fill="#142C3F" d="M431.34,108.52l10.112-23.524h-14.997v-8.435h26.113v6.709l-10.639,25.25H431.34z"/>
	<path fill="#142C3F" d="M458.889,108.52L469,84.994h-14.995v-8.434h26.113v6.709l-10.638,25.248h-10.592V108.52z"/>
	<path fill="#142C3F" d="M481.963,104.956c0-2.175,1.838-4.011,4.014-4.011c2.174,0,4.012,1.838,4.012,4.011
		c0,2.175-1.838,4.013-4.012,4.013C483.801,108.969,481.963,107.132,481.963,104.956z"/>
	<path fill="#142C3F" d="M491.939,99.443c0-5.734,4.424-9.484,10.16-9.484c4.123,0,6.673,1.875,7.687,3.41l-4.35,4.088
		c-0.563-0.862-1.612-1.536-3.038-1.536c-1.912,0-3.563,1.198-3.563,3.522s1.65,3.563,3.563,3.563c1.426,0,2.476-0.75,3.038-1.574
		l4.35,4.123c-1.014,1.502-3.564,3.412-7.687,3.412C496.363,108.969,491.939,105.219,491.939,99.443z"/>
	<path fill="#142C3F" d="M510.762,99.443c0-5.061,3.747-9.484,10.161-9.484c6.447,0,10.197,4.425,10.197,9.484
		c0,5.063-3.75,9.523-10.197,9.523C514.509,108.969,510.762,104.507,510.762,99.443z M524.183,99.443
		c0-1.986-1.163-3.522-3.26-3.522c-2.063,0-3.226,1.538-3.226,3.522c0,2.025,1.162,3.563,3.226,3.563
		C523.021,103.008,524.183,101.47,524.183,99.443z"/>
	<path fill="#142C3F" d="M556.766,108.52V97.947c0-1.09-0.562-2.026-2.061-2.026s-2.324,0.899-2.776,1.427v11.172h-6.748V97.947
		c0-1.09-0.523-2.026-2.063-2.026c-1.463,0-2.285,0.899-2.734,1.427v11.172h-6.748v-18.11h6.748v2.062
		c0.788-1.012,3.073-2.512,5.998-2.512c2.549,0,4.389,0.938,5.213,3.188c1.051-1.576,3.41-3.188,6.335-3.188
		c3.339,0,5.586,1.688,5.586,5.438v13.123H556.766z"/>
</g>
<g id="logo_x5F_1">
	<g>
		<path fill="#142C3F" d="M268.51,59.54c-20.128,0-36.444,16.317-36.444,36.444c0,20.129,36.444,48.595,36.444,48.595
			s36.448-28.466,36.448-48.595C304.956,75.859,288.638,59.54,268.51,59.54z"/>
	</g>
</g>
<g id="logo_x5F_2">
	<g>
		<path fill="#FFDE00" d="M268.51,72.557c-12.271,0-22.215,9.946-22.215,22.217c0,12.269,9.946,22.217,22.215,22.217
			c12.271,0,22.218-9.948,22.218-22.217C290.728,82.501,280.781,72.557,268.51,72.557z"/>
	</g>
</g>
<g id="logo_x5F_3">
	<g>
		<circle fill="#142C3F" cx="268.51" cy="94.771" r="10.022"/>
	</g>
</g>
</svg>
