<?xml version="1.0" encoding="utf-8"?>
<!-- Generator: Adobe Illustrator 15.1.0, SVG Export Plug-In . SVG Version: 6.00 Build 0)  -->
<!DOCTYPE svg PUBLIC "-//W3C//DTD SVG 1.1//EN" "http://www.w3.org/Graphics/SVG/1.1/DTD/svg11.dtd">
<svg version="1.1" id="Vrstva_2" xmlns="http://www.w3.org/2000/svg" xmlns:xlink="http://www.w3.org/1999/xlink" x="0px" y="0px"
	 width="173.386px" height="85.04px" viewBox="0 0 173.386 85.04" enable-background="new 0 0 173.386 85.04" xml:space="preserve">
<path fill="#E4003C" d="M164.333,51.745c-1.639,0-2.581-1.521-2.581-3.738c0-2.125,1.034-3.583,2.553-3.583
	c1.669,0,2.763,1.185,2.763,3.704C167.068,50.318,166.004,51.745,164.333,51.745 M155.555,40.2v21.327h6.319v-6.988
	c1.063,1.337,2.34,2.036,4.069,2.036c3.555,0,7.442-2.28,7.442-8.537c0-4.374-2.308-8.292-7.107-8.292
	c-1.823,0-4.101,0.881-4.981,2.824h-0.061V40.2H155.555z M152.732,40.2h-6.32v7.656c0,2.462-0.579,3.828-2.399,3.828
	c-1.52,0-2.277-0.7-2.277-2.886V40.2h-6.319v9.692c0,4.556,2.249,6.683,5.71,6.683c2.613,0,4.162-0.607,5.742-2.794v2.338h5.864
	V40.2z M114.76,48.342c0,5.438,3.95,8.232,9.051,8.232c5.102,0,9.052-2.732,9.052-8.566c0-4.95-3.464-8.262-9.082-8.262
	C118.405,39.746,114.76,42.815,114.76,48.342 M123.873,43.999c1.64-0.092,2.673,1.671,2.673,4.008c0,3.01-1.035,4.314-2.734,4.314
	c-1.609,0-2.732-1.307-2.732-4.314C121.079,46.216,121.716,43.999,123.873,43.999 M102.33,56.119h6.318v-5.497
	c0-3.434,1.308-4.648,3.89-4.648c0.427,0,0.879,0.121,1.306,0.182v-6.318c-0.271-0.029-0.547-0.092-0.818-0.092
	c-2.464,0-4.012,1.184-4.893,3.676h-0.061v-3.222h-5.742V56.119z M98.714,44.089H88.9v4.738h3.162
	c-0.365,1.52-2.218,2.521-3.676,2.521c-3.616,0-4.588-2.823-4.588-5.922c0-3.857,1.337-6.411,4.162-6.411
	c1.854,0,3.158,0.973,3.675,2.766h6.806c-0.882-5.376-5.103-8.11-10.357-8.11c-7.078,0-11.454,4.799-11.454,11.786
	c0,7.624,5.013,11.239,10.603,11.239c3.434,0,5.405-1.275,6.593-2.671l0.272,2.154h4.617V44.089z"/>
<polygon fill="#E4003C" points="42.824,33.429 42.824,44.468 33.042,33.429 25.399,33.429 25.399,55.789 33.042,55.789 
	33.042,44.934 42.66,55.789 42.824,55.623 42.824,55.789 50.468,55.789 50.468,33.429 "/>
<path fill="#E4003C" d="M11.18,48.143c-1.951,0-3.535-1.582-3.535-3.533c0-1.952,1.583-3.535,3.535-3.535h12.083l-6.775-7.644
	h-5.308C5.006,33.429,0,38.434,0,44.609c0,6.173,5.006,11.18,11.18,11.18h12.083l-6.773-7.646H11.18z"/>
<g>
	<g>
		<g>
			<g>
				<g>
					<path fill="#B2B2B2" d="M68.637,0.028C69.014-0.029,69.523,0,69.953,0.12c0.29,0.081,0.382,0.27,0.692,0.37
						c0.563,0.199,0.841,0.569,1.146,0.916c0.132,0.151,0.308,0.116,0.44,0.422c0.027,0.08,0.055,0.162,0.086,0.242
						c0.083,0.217,0.19,0.425,0.359,0.557c0.114,0.091,0.274-0.09,0.44,0.146c0.454,0.37,0.164,1.049,0.247,1.564l0.021,2.554
						c0.041,0.411,0.639,0.638,0.391,1.111c-0.326,0.445-0.468,1.064-0.454,1.573c0.016,0.58,0.206,1.048-0.043,1.494
						c-0.288,0.31-0.823,0.186-1.008,0.619c-0.077,0.297-0.019,0.671-0.104,0.972c-0.051,0.181-0.25,0.169-0.371,0.427
						c-0.082,0.247-0.082,0.577,0,0.825c0.07,0.27,0.391,0.288,0.227,0.533c-0.336,0.418-0.298,0.636-0.349,0.969
						c-0.026,0.312-0.272,0.351-0.369,0.539c-0.058,0.114-0.098,0.234-0.105,0.367c-0.054,0.283-0.498,0.412-0.75,0.743
						c-0.122,0.161-0.137,0.488-0.158,0.677c-0.082,0.371,0.455,0.536,0.207,0.906c-0.266,0.386-0.486,0.811-0.617,1.235
						c-0.063,0.269,0.391,0.639-0.083,0.762c-1.009,0.123-0.453,1.255-0.659,1.895c-0.17,0.42-0.388,1.063-0.597,1.173
						c-0.332,0.222-0.271,0.369-0.487,0.573c-0.092,0.085-0.382,0.309-0.528,0.387c-0.207,0.207-0.16,0.34-0.098,0.545
						c0.072,0.187-0.041,1.399-0.741,1.708c-0.289,0.104-0.598,0.186-0.741,0.475l-0.083,1.009c-0.023,0.324-0.479,0.732-0.759,1.21
						c-0.135,0.232-0.011,0.533-0.209,0.744c-0.453,0.639,0.247,1.215,0.104,1.832c-0.087,0.273,0.019,0.567,0.062,0.853
						c0.018,0.121-0.108,0.219,0,0.363c0.141,0.248,0.073,0.346,0.226,0.563c0.245,0.335,0.361,0.065,0.556,0.486
						c0.094,0.393,0.171,0.836,0.172,1.264c0,0.226-0.124,0.308-0.069,0.65c0,0.659,0.206,1.441,0.02,2.1
						c-0.088,0.53,0.994,0.8,0.494,1.297c-0.227,0.288-0.598,0.495-0.452,0.926c0.206,0.392-0.021,0.844-0.021,1.277
						c-0.124,0.329-0.121,0.543-0.535,0.823c-0.514,0.413-0.821,0.825-1.529,1.109c-0.495,0.288,0.006,0.909-0.675,1.032
						c-0.365,0.118-0.667,0.033-1.062,0.062c-0.294,0.021-0.703,0.2-0.892,0.062c-0.248-0.246-0.419-0.383-0.866-0.389
						c-0.124,0-0.288,0.02-0.308-0.126c-0.121-0.214-0.145-0.575,0.207-0.596c0.454,0.122,0.895-0.238,1.029-0.475
						c0.164-0.267,0.37-0.576,0.391-0.925c0.065-0.277,0.243-0.346,0.595-0.42c0.151-0.031,0.438-0.065,0.579-0.177
						c0.248-0.186,0.042-0.536,0.186-0.741c0.036-0.27,0.071-0.483,0.291-0.869c0.045-0.162,0.22-0.488,0.2-0.799
						c-0.008-0.116-0.042-0.229-0.12-0.33c-0.157-0.159-0.055-0.396-0.041-0.532c0.021-0.195,0.144-0.277,0.144-0.495
						c-0.206-0.37,0.247-0.701,0-1.07c-0.02-0.269-0.127-0.359-0.106-0.646c0.021-0.227-0.122-0.334-0.167-0.424
						c-0.074-0.146-0.065-0.119-0.141-0.271c-0.27-0.231-0.162-0.533-0.141-0.739c-0.021-0.454,0.186-0.906-0.165-1.236
						c-0.233-0.2-0.453,0.269-0.495,0.515c-0.226,0.124-0.514,0.063-0.637,0.33c-0.016,0.461-0.119,0.782-0.288,1.152
						c-0.063,0.37,0.041,0.906-0.412,1.009c-0.413-0.021-0.783-0.157-1.112,0.247c-0.16,0.381,0.237,0.768,0.034,1.127
						C59.75,38.538,59.55,39,59.256,39.2c-0.249,0.166-0.615,0.101-0.615,0.101c-0.283,0.071-0.142-0.39-0.337-0.846
						c-0.056-0.13-0.322-0.246-0.322-0.575c-0.024-0.309-0.094-0.632-0.26-0.891c-0.112-0.174-0.267-0.317-0.48-0.407
						c-0.186-0.083-0.412-0.062-0.577,0.062c-0.197,0.119-0.347,0.331-0.393,0.536c-0.053,0.227-0.002,0.446-0.204,0.599
						c-0.288,0.227-0.736,0.123-0.884,0.534c-0.145,0.227-0.238,0.438-0.454,0.597c-0.233,0.099-0.363,0.022-0.329-0.247
						c-0.012-0.313,0.285-0.352,0.417-0.593c0.167-0.257-0.129-0.438,0.139-0.745c0.46-0.265,0.354-0.797,0.511-1.213
						c0.061-0.163,0.328-0.114,0.354-0.414c0-0.215,0.056-0.395,0.14-0.557c0.181-0.347,0.438-0.366,0.663-1.028
						c0.176-0.47,0.856-0.626,0.824-1.193c-0.01-0.156,0.034-0.253,0.107-0.321c0.219-0.201,0.707-0.132,0.799-0.503
						c0.042-0.411,0.432-0.596,0.577-0.966c0.143-0.495-0.124-1.152,0.329-1.525c0.289-0.35,0.864-0.761,0.7-1.339
						c0.021-0.308,0.301-0.427,0.288-0.844c-0.007-0.269-0.029-0.543-0.051-0.817c-0.046-0.564-0.013-1.134-0.01-1.673
						c-0.083-0.144,0-0.391-0.227-0.413c-0.288,0.042-0.598-0.021-0.741-0.288c-0.164-0.432,0.155-0.948-0.021-1.379
						c-0.186-0.166-0.021-0.371,0.021-0.556c0.042-0.536-0.267-0.846-0.123-1.401c-0.063-0.309,0.11-0.571,0.042-0.926
						c-0.042-0.377,0.101-0.693,0.094-1.072c-0.007-0.386-0.16-0.838-0.075-1.232c0.124-0.309,0.782-0.248,0.515-0.762
						c0.041-0.227,0.473-0.155,0.453-0.577c-0.207-0.659,0.587-0.929,0.886-1.359c0.308-0.679,0.758-1.034,1.541-0.972
						c0.451,0.05,0.806-0.099,0.949,0.149c0.08,0.16,0.228,0.617,0,0.925c-0.151,0.34-0.031,0.298-0.048,0.803
						c-0.103,0.373-0.278,0.339-0.398,0.411c-0.13,0.077-0.292,0.224-0.361,0.425l-0.139,0.357
						c-0.131,0.428-0.424,0.489-0.436,0.826c-0.014,0.425,0.063,0.887-0.224,1.151c-0.227,0.474,0.433,0.536,0.247,0.947
						c-0.072,0.405,0.109,0.831,0.124,1.249c0.006,0.176-0.23,0.322-0.104,0.523c0.186,0.123,0.427,0.106,0.432,0.433
						c0,0.123-0.02,0.329,0.021,0.473c0.334,0.387,0.386,0.014,0.433-0.289c0.082-0.39,0.226-0.74,0.452-1.07
						c0.402-0.495,0.827-0.815,0.783-1.935c-0.042-0.721,0.783-0.845,0.968-1.461c0.272-0.946,1.07-1.092,1.048-1.853
						c0.021-0.508,0.344-0.713,0.454-1.298c0.021-0.454,0.234-0.762,0.378-1.152c0.219-0.502,0.094-1.009,0.322-1.401
						c0.361-0.453,0.772-0.014,0.885-0.638c0,0-0.023-1.012,0.325-1.628c0.978-0.785,0.161-1.654,0.149-2.057
						c-0.083-0.33-0.556-0.226-0.454-0.637c0-0.578,0.228-1.167-0.206-1.607c-0.248-0.164-0.545-0.344-0.905-0.061
						c-0.218,0.386-0.392,0.638-0.824,0.577c-0.334-0.127-0.398-0.526-0.679-0.619c-0.804-0.185-1.186,0.686-1.709,0.886
						c-0.35,0.186-0.906,0.186-1.05,0.599l-0.051,0.394c-0.068,0.215-0.406,0.429-0.76,0.542c-0.29,0.091-0.715,0.077-1.003,0.321
						c-0.265,0.176-0.467,0.32-0.755,0.459c-0.114,0.056-0.236,0.092-0.377,0.092c-0.393,0.205-0.021,0.782-0.515,0.884
						c-0.361,0.065-0.63,0.211-0.996,0.525c-0.24,0.266-0.42,0.189-0.651,0.446c-0.165,0.659-0.938,0.845-1.363,0.99
						c-0.515,0.216-0.592,0.376-0.937,0.659c-0.309,0.253-0.615,0.513-1.014,0.592c-0.749,0.395-1.181,1.097-1.708,1.588
						c-0.269,0.251-0.678,0.313-0.936,0.52c-0.227,0.124-0.774,0.74-1.042,0.617c-0.063-0.061-0.123-0.123-0.104-0.207
						c0.039-0.36,0.966-0.578,0.825-1.037c-0.042-0.186-0.207-0.35-0.37-0.452c-0.351-0.233-1.006,0.615-1.421,1.049
						c-0.68,0.741-1.219,1.585-2.101,2.181c-0.679,0.515-1.024,1.231-1.852,1.771c0,0-1.961,1.306-2.415,2.188
						c-0.45,0.875-2.329,2.341-2.329,2.341c-0.424,0.515-0.039,1.043-0.63,1.359c-0.289,0.041-0.502,0.019-0.72,0.329
						c-0.207,0.247-0.193,0.716-0.604,0.757c0,0-0.579-0.038-0.901,0.426c-0.257,0.399-0.733,0.167-1.145,0.566
						c-0.288,0.266-0.623,0.146-0.623,0.702c-0.021,0.536,0.164,1.256-0.432,1.461c-0.329,0.083-0.741,0.061-0.988-0.186
						c-0.392-0.516-0.536-1.339-0.248-1.977c0.182-0.183,0.206-0.413,0.387-0.62c0.206-0.244,0.386-0.127,0.499-0.409
						c-0.059-0.629,0.59-0.906,0.903-1.353c0.141-0.18,0.105-0.449,0.205-0.696c0.288-0.35,0.909-0.113,0.971-0.73
						c0.048-0.611,0.687-0.984,0.935-1.521c0.069-0.15-0.015-0.257,0.094-0.497c0.071-0.16,0.31-0.125,0.394-0.275
						c0.167-0.184,0.214-0.371,0.43-0.546c0.338-0.279,0.612-0.706,0.921-1.036c0.264-0.28,0.653-0.445,0.927-0.682
						c0.245-0.193,0.213-0.363,0.375-0.507c0.329-0.247,0.925-0.144,1.049-0.659c-0.046-0.574,0.43-0.814,0.774-1.162
						c0.127-0.126,0.235-0.267,0.296-0.442c0.115-0.317,0.499-0.425,0.77-0.653c0.425-0.356,0.846-0.74,1.083-1.179
						c0.156-0.233,0.403-0.262,0.569-0.438c0.323-0.346,0.587-0.766,0.996-1.024c0.68-0.453,1.009-1.544,1.914-1.544
						c0.395,0.019,0.176-0.715,0.578-0.886c0.308-0.04,0.577-0.163,0.72-0.472c-0.021-0.597,0.731-0.54,1.009-0.803
						c0.659-0.536,0.905-1.297,1.77-1.419c0.28-0.041,0.631-0.375,0.965-0.733c0.335-0.359,0.216-0.544,0.599-0.645
						c0.598-0.054,0.92-0.398,1.3-0.66c0.17-0.116,0.349-0.089,0.573-0.269c0.201-0.154,0.289-0.329,0.577-0.267
						c0.203,0.004,0.292-0.149,0.361-0.337c0.074-0.203,0.036-0.501,0.257-0.568c0.364-0.109,0.724-0.177,1.052-0.319
						c0.328-0.143,0.624-0.355,0.821-0.546l0.906-0.823c0.19-0.24,0.528-0.009,0.704-0.046c0.44-0.095,0.681-0.316,1.107-0.447
						c0.741,0.02,1.193-0.679,1.894-0.741c0.293-0.046,0.269-0.261,0.417-0.351c0.112-0.066,0.235-0.088,0.386,0
						c0.186,0.164,0.452,0.31,0.7,0.186c0.618-0.435,1.502,0.062,2.079-0.453C68.091,0.347,68.323,0.075,68.637,0.028 M69.922,3.063
						c-0.226,0.163-0.288,0.454-0.246,0.741c0.082,0.329,0.426,0.509,0.72,0.392c0.186-0.082,0.35-0.166,0.433-0.432
						C70.94,3.451,70.579,2.667,69.922,3.063 M63.521,5.491c0.102,0.083,0.227,0.165,0.35,0.083c0.104-0.083,0.124-0.227,0.083-0.33
						C63.748,5.141,63.541,5.308,63.521,5.491 M62.47,5.575c-0.165,0.123-0.349,0.164-0.452,0.35
						C61.955,6.088,61.916,6.357,62.1,6.48c0.309,0.061,0.7-0.083,0.948-0.309c0.102-0.104,0.02-0.247-0.021-0.37
						C62.862,5.656,62.676,5.595,62.47,5.575 M60.165,6.624c-0.37,0.227-0.618,0.556-1.07,0.556
						c-0.536,0.163-0.829,0.646-1.112,0.969c-0.679,0.656-1.32,0.64-1.815,1.504c-0.133,0.194-0.886,0.763-1.042,0.925
						c-0.203,0.213-0.012,0.463-0.396,0.594c-0.7-0.02-1.091,0.659-1.75,0.741c-0.288,0.081-0.349,0.37-0.349,0.638
						c-0.063,0.329-0.413,0.35-0.659,0.392c-0.248,0.063-0.433,0.329-0.453,0.577c0.041,0.227,0.165,0.434,0.37,0.556
						c0.31,0.309,0.597-0.083,0.783-0.309c0.145-0.144,0.041-0.392,0.186-0.556c0.515-0.164,1.38,0.042,1.461-0.761
						c0.042-0.268,0.33-0.371,0.556-0.413c0.458-0.083,0.896-0.803,1.729-1.091c0.35-0.123,0.081-0.444,0.531-0.69
						c0.739-0.231,0.257-0.411,1.339-1.132c0,0,0.54-0.321,1.003-0.475c0.824-0.27,0.979-0.81,1.415-1.043
						c0.413-0.154,0.737-0.283,0.634-0.633C61.235,6.562,60.658,6.167,60.165,6.624 M70.004,12.039
						c-0.206,0.103-0.309,0.309-0.247,0.535c0.061,0.164,0.227,0.267,0.412,0.227c0.164-0.083,0.267-0.289,0.227-0.495
						C70.355,12.122,70.17,12.018,70.004,12.039 M49.954,15.765c-0.165,0.164-0.268,0.391-0.186,0.639h0.123
						c0.165-0.063,0.349-0.248,0.349-0.454C50.16,15.868,50.097,15.744,49.954,15.765 M48.924,16.794
						c-0.536,0.432-1.194,0.802-1.234,1.502c0.268,0.02,0.494-0.103,0.72-0.206c0-0.555,0.639-0.762,0.803-1.194
						C49.13,16.834,49.028,16.834,48.924,16.794 M46.721,19.142c0,0.062,0,0.123-0.061,0.123c-0.063,0.02-0.083-0.02-0.104-0.042
						C46.516,19.121,46.701,18.997,46.721,19.142 M59.877,21.817c-0.104,0.103-0.228,0.185-0.207,0.308
						c-0.041,0.267,0.246,0.166,0.37,0.289c0.143-0.042,0.206-0.186,0.206-0.329C60.207,21.92,60.021,21.839,59.877,21.817
						 M58.806,32.585c-0.125,0.247,0.02,0.556,0.226,0.7c0.207,0.082,0.473,0.062,0.639-0.104c0.123-0.144,0.207-0.412,0.103-0.617
						C59.63,32.131,58.909,32.11,58.806,32.585 M57.983,36.043c-0.186,0.083-0.248,0.289-0.207,0.473
						c0.062,0.186,0.248,0.289,0.434,0.309c0.186-0.104,0.186-0.383,0.102-0.556C58.25,36.125,58.147,36.022,57.983,36.043
						 M55.924,36.125c-0.063,0.083-0.124,0.267,0.021,0.33c0.082,0,0.164,0.02,0.226-0.043
						C56.295,36.27,56.047,36.022,55.924,36.125 M65.497,41.52l-0.351-0.124c-0.061,0.021-0.164,0.082-0.144,0.185
						c0.042,0.166,0.268,0.27,0.433,0.227L65.497,41.52z"/>
					<path fill="#B2B2B2" d="M15.533,61.571c0.083,0.267-0.186,0.412-0.186,0.659c0.033,0.371,0.316,0.524-0.042,1.235
						c-0.093,0.421,0.036,0.499-0.196,0.898c-0.191,0.342-0.463,0.497-0.689,0.81c-0.309,0.401-0.155,0.979-0.345,1.412
						c-0.151,0.209-0.408,0.439-0.475,0.825c-0.1,0.271-0.282,0.347-0.37,0.785c0,0,0.029,0.417-0.154,0.852
						c-0.153,0.362-0.497,0.6-0.58,0.735c-0.315,0.508-0.758,1.142-0.823,1.424c-0.064,0.63-0.296,0.645-0.514,1.313
						c-0.09,0.746,0.173,0.991-0.239,1.443c-0.329,0.308-0.699,0.7-0.884,1.153c-0.137,0.646-0.042,1.668,0.062,2.388
						c0.008,0.33-0.208,0.501-0.197,0.766c0.009,0.239,0.097,0.412,0.128,0.643c0.022,0.158-0.03,0.387,0.028,0.527
						c0.125,0.185,0.125,0.433,0.351,0.534c0.311,0.032,0.606,0.06,0.895,0.174c0.247,0.1,0.489,0.294,0.731,0.236
						c0.35-0.266,0.7-0.391,1.112-0.473c0.584-0.166,1.025-1.114,1.748-1.472c0.196-0.098,0.385,0.023,0.661-0.134
						c0.179-0.157,0.375-0.283,0.587-0.369c0.179-0.07,0.384,0.064,0.565-0.123c0.277-0.277,0.614-0.588,0.992-0.804
						c0.213-0.123,0.45-0.053,0.614-0.289c0.247-0.435,0.608-0.947,1.187-1.152c0.314-0.081,0.578-0.49,0.967-0.758
						c0.167-0.115,0.281-0.002,0.584-0.232c0.37-0.576,0.958-0.863,1.743-1.069c0.643-0.155,0.54-0.656,1.038-0.989
						c0.308-0.268,0.647-0.222,1.111-0.515c0.623-0.311,0.847-0.855,1.39-1.225c0.211-0.146,0.437-0.245,0.875-0.401
						c0.36-0.087,0.456-0.316,0.591-0.371c0.366-0.147,0.592,0.021,0.788-0.371c0.104-0.185,0.267-0.489,0.535-0.328
						c0.618,0.927-0.884,1.194-0.906,2.036l-0.094,0.735c-0.152,0.438-0.749,0.439-0.893,0.769
						c-0.021,0.247-0.111,0.529-0.471,0.593c-0.35,0.146-0.642,0.438-0.765,0.766c-0.162,0.278-0.458,0.123-0.578,0.35
						c-0.233,0.187-0.417,0.423-0.452,0.74c-0.265,0.408-0.651,0.364-0.919,0.629c-0.335,0.326-0.915,0.629-0.975,1.039
						c-0.124,0.411,0.098,1.354-0.494,1.175c-0.268-0.126-0.605-0.517-0.965-0.208c-0.391,0.393-0.591,0.579-0.744,1.193
						c-0.045,0.353-0.667,0.799-1.234,1.291c-0.268,0.232-0.523,0.478-0.7,0.727c-0.28,0.313-0.586,0.15-0.836,0.321
						c-0.303,0.209-0.551,0.502-0.686,0.852c-0.01,0.104-0.087,0.58-0.353,0.673c-0.323,0.112-0.862-0.163-1.106-0.038
						c-0.571,0.285-1.01,0.957-1.403,0.909c0,0-1.143-0.363-2.07-0.049c-0.894,0.304-1.416,1.135-2.046,1.183
						c-0.901-0.023-1.812,0.289-2.388-0.453c-0.301-0.291-0.639-0.181-0.943-0.408c-0.299-0.224-0.76-0.397-0.746-0.786
						c-0.061-1.11-1.502-1.419-1.173-2.717c0.143-0.741-0.247-1.647,0.247-2.224c0.35-0.433,0.113-0.821,0.721-1.398
						c0.167-0.128,0.154-0.673,0.1-1.365c-0.028-0.362-0.36-0.629-0.079-1.147c0.287-0.474,0.78-0.805,1.028-1.276
						c0.227-0.968-0.248-2.431,0.927-2.82c0.389-0.107,0.002-0.289,0.186-0.804c0.066-0.202,0.394-0.485,0.577-0.849
						c0.132-0.265,0.092-0.591,0.288-0.858c0.063-0.371-0.062-0.887,0.351-1.05c0.614,0,0.531-0.098,0.815-0.845
						c0.044-0.262,0.4-0.531,0.604-0.887c0.148-0.262,0.372-0.556,0.329-0.803c-0.062-0.574,0.41-0.927,0.793-1.32
						c0.511-0.44,0.204-0.62,0.463-0.882c0.597-0.29,0.659,0.533,1.193,0.349c0.309-0.289,0.598-0.515,0.783-0.886
						c0.062-0.369-0.062-1.067,0.164-1.092C15.348,60.439,15.227,61.158,15.533,61.571 M29.608,68.824
						c-0.176,0.02-0.302,0.119-0.283,0.221c0.02,0.103,0.122,0.206,0.229,0.23c0.105,0.023,0.233-0.073,0.282-0.222
						C29.885,68.907,29.783,68.804,29.608,68.824 M27.33,71.762c0.02,0.122,0.143,0.165,0.246,0.185
						c0.145-0.042,0.124-0.185,0.145-0.309c0.012-0.104-0.237-0.236-0.348-0.173C27.218,71.53,27.33,71.762,27.33,71.762"/>
				</g>
			</g>
		</g>
	</g>
</g>
</svg>
