<?xml version="1.0" encoding="utf-8"?>
<!-- Generator: Adobe Illustrator 15.1.0, SVG Export Plug-In . SVG Version: 6.00 Build 0)  -->
<!DOCTYPE svg PUBLIC "-//W3C//DTD SVG 1.1//EN" "http://www.w3.org/Graphics/SVG/1.1/DTD/svg11.dtd">
<svg version="1.1" id="Layer_1" xmlns="http://www.w3.org/2000/svg" xmlns:xlink="http://www.w3.org/1999/xlink" x="0px" y="0px"
	 width="131.063px" height="85.04px" viewBox="-6.553 -4.252 131.063 85.04" enable-background="new -6.553 -4.252 131.063 85.04"
	 xml:space="preserve">
<rect x="-6.553" y="73.392" fill="#33B7D9" width="100.363" height="7.396"/>
<rect x="-6.553" y="73.392" fill="#33B7D9" width="100.363" height="7.396"/>
<g>
	<g>
		<path fill="#33B7D9" d="M124.51,20.569v-4.671h-9.76V-3.834h-5.649v24.403H124.51z M94.425,4.741h0.034l2.336,7.045h-4.882
			L94.425,4.741z M106.242,20.569l-9.1-24.403h-4.497L82.501,20.569h6.238l1.535-4.286h8.055l1.429,4.286H106.242z M81.979,0.838
			v-4.672H65.035v4.672h5.649v19.73h5.646V0.838H81.979z M62.42-3.834h-5.649v24.403h5.649V-3.834z M46.558,10.949v2.998
			c-1.466,1.396-3.487,2.162-5.266,2.162c-4.252,0-6.936-3.242-6.936-7.739c0-4.289,2.928-7.74,6.97-7.74
			c2.755,0,4.986,1.499,6.66,3.521l3.907-3.416c-2.823-3.277-6.313-4.986-10.6-4.986c-7.146,0-12.934,5.508-12.934,12.621
			c0,7.46,5.613,12.619,12.968,12.619c4.289,0,8.228-1.499,10.88-5.09v-9.62H40.84v4.671H46.558z M24.314-3.834h-5.647v24.403h5.647
			V-3.834z M-0.542,0.838h1.114c5.09,0,8.054,2.686,8.054,7.738c0,5.334-3.625,7.321-8.857,7.321h-0.312V0.838z M-6.189,20.569
			h7.007c6.763,0,13.806-3.275,13.806-12.305c0-8.82-7.147-12.098-13.492-12.098h-7.321V20.569z"/>
	</g>
</g>
<g>
	<g>
		<defs>
			<path id="SVGID_1_" d="M-0.542,0.838h1.114c5.091,0,8.054,2.686,8.054,7.738c0,5.334-3.625,7.321-8.857,7.321h-0.312V0.838z
				 M-6.189-3.834v24.403h7.006c6.764,0,13.806-3.275,13.806-12.305c0-8.82-7.148-12.098-13.492-12.098H-6.189z M18.667,20.569
				h5.647V-3.834h-5.647V20.569z M56.771,20.569h5.649V-3.834h-5.649V20.569z M65.035-3.834v4.672h5.649v19.73h5.646V0.838h5.648
				v-4.672H65.035z M94.425,4.741h0.034l2.336,7.045h-4.882L94.425,4.741z M92.646-3.834L82.501,20.569h6.238l1.532-4.286h8.058
				l1.429,4.286h6.484l-9.1-24.403H92.646z M109.101-3.834v24.403h15.409v-4.671h-9.76V-3.834H109.101z M41.292-4.252
				c-7.146,0-12.934,5.508-12.934,12.621c0,7.46,5.613,12.619,12.967,12.619c4.289,0,8.229-1.499,10.88-5.09v-9.62H40.839v4.671
				h5.719v2.998c-1.466,1.396-3.487,2.162-5.266,2.162c-4.252,0-6.936-3.242-6.936-7.739c0-4.289,2.929-7.74,6.97-7.74
				c2.755,0,4.987,1.499,6.661,3.521l3.907-3.416C49.069-2.543,45.58-4.252,41.292-4.252z"/>
		</defs>
		<clipPath id="SVGID_2_">
			<use xlink:href="#SVGID_1_"  overflow="visible"/>
		</clipPath>
		<rect x="-11.473" y="-9.534" clip-path="url(#SVGID_2_)" fill="#33B7D9" width="141.262" height="35.806"/>
	</g>
</g>
<g>
	<g>
		<path fill="#33B7D9" d="M93.866,57.545V33.143h-5.647v14.223L77.795,33.143h-4.987v24.403h5.649V43.389l10.32,14.156H93.866
			L93.866,57.545z M67.856,33.143H62.21v24.403h5.646V33.143z M47.532,41.716h0.036l2.335,7.044h-4.882L47.532,41.716z
			 M59.354,57.545l-9.101-24.403h-4.497L35.61,57.545h6.241l1.533-4.286h8.056l1.427,4.286H59.354z M20.967,37.813h2.163
			c1.952,0,3.277,1.152,3.277,2.858c0,1.883-1.674,2.685-3.938,2.685h-1.501v-5.542H20.967z M15.32,57.545h5.646v-9.519h0.244
			l6.452,9.519h7.042c-1.639-2.229-5.194-7.179-7.356-10.18c2.65-1.047,5.057-3.137,5.057-6.797c0-5.369-5.125-7.426-9.135-7.426
			h-7.949L15.32,57.545L15.32,57.545z M-0.542,37.78h0.697c1.359,0,2.614,0,3.415,0.556c0.524,0.385,0.872,1.009,0.872,2.022
			c0,1.676-1.393,2.513-3.975,2.513h-1.009V37.78z M5.139,50.295c0,1.113-0.453,1.742-1.183,2.126
			C3.014,52.91,1.618,52.91,0.33,52.91h-0.872v-5.579h2.334C3.99,47.331,5.139,48.447,5.139,50.295 M-6.189,57.545H0.19
			c2.196,0,4.567-0.208,6.415-0.975c2.718-1.15,4.531-3.452,4.531-6.38c0-2.476-1.602-4.673-3.834-5.478
			c1.743-0.834,2.789-2.646,2.789-4.527c0-2.232-0.976-4.185-2.963-5.476c-1.812-1.184-4.288-1.567-6.659-1.567h-6.657V57.545z"/>
	</g>
</g>
<g>
	<g>
		<defs>
			<path id="SVGID_3_" d="M-0.542,47.331h2.334c2.197,0,3.346,1.116,3.346,2.965c0,1.113-0.453,1.742-1.183,2.126
				C3.014,52.91,1.618,52.91,0.329,52.91h-0.871V47.331z M-0.542,37.78h0.697c1.359,0,2.614,0,3.415,0.557
				c0.523,0.384,0.871,1.008,0.871,2.021c0,1.676-1.393,2.513-3.975,2.513h-1.008V37.78z M-6.189,33.143v24.403H0.19
				c2.196,0,4.567-0.208,6.415-0.975c2.718-1.15,4.531-3.452,4.531-6.38c0-2.476-1.602-4.673-3.834-5.478
				c1.742-0.834,2.788-2.646,2.788-4.527c0-2.232-0.976-4.185-2.963-5.476c-1.811-1.184-4.287-1.567-6.658-1.567H-6.189z
				 M20.967,37.813h2.163c1.952,0,3.277,1.152,3.277,2.858c0,1.883-1.674,2.685-3.938,2.685h-1.501v-5.542H20.967z M15.32,33.143
				v24.403h5.646v-9.519h0.244l6.452,9.519h7.042c-1.639-2.229-5.194-7.179-7.356-10.18c2.65-1.047,5.057-3.137,5.057-6.797
				c0-5.369-5.125-7.426-9.135-7.426H15.32z M47.532,41.716h0.036l2.335,7.044h-4.882L47.532,41.716z M45.756,33.143L35.61,57.545
				h6.241l1.533-4.286h8.056l1.428,4.286h6.486l-9.101-24.403H45.756z M62.21,57.545h5.646V33.143H62.21V57.545z M88.219,33.143
				v14.223L77.795,33.143h-4.987v24.403h5.649V43.389l10.32,14.156h5.089V33.143H88.219z"/>
		</defs>
		<clipPath id="SVGID_4_">
			<use xlink:href="#SVGID_3_"  overflow="visible"/>
		</clipPath>
		<rect x="-11.473" y="27.86" clip-path="url(#SVGID_4_)" fill="#33B7D9" width="110.621" height="34.967"/>
	</g>
</g>
</svg>
