<?xml version="1.0" encoding="utf-8"?>
<!-- Generator: Adobe Illustrator 15.1.0, SVG Export Plug-In . SVG Version: 6.00 Build 0)  -->
<!DOCTYPE svg PUBLIC "-//W3C//DTD SVG 1.1//EN" "http://www.w3.org/Graphics/SVG/1.1/DTD/svg11.dtd">
<svg version="1.1" id="Layer_1" xmlns="http://www.w3.org/2000/svg" xmlns:xlink="http://www.w3.org/1999/xlink" x="0px" y="0px"
	 width="98.011px" height="85.039px" viewBox="0 0 98.011 85.039" enable-background="new 0 0 98.011 85.039" xml:space="preserve">
<path fill="#3E3023" d="M50.111,26.953c0.092,2.567,0.062,5.312,0.062,7.471c0.822-0.686,1.738-1.405,2.689-2.152l-0.026-2.805
	l-0.038-2.913c-0.006-0.318,0.005-0.505,0.018-0.691c3.517-0.957,7.635-2.814,11.659-4.826c0.566-0.853,1.066-1.508,1.434-2.401
	c-4.571,2.61-10.706,4.904-15.831,6.208C50.077,25.381,50.132,26.147,50.111,26.953 M73.755,7.478H62.124
	c4.246,0.943,5.628,4.542,6.507,7.018c0.784-0.656,1.484-1.388,2.109-2.142c-0.586-1.383-1.449-2.964-2.903-4.19h5.597
	C73.548,7.928,73.661,7.695,73.755,7.478 M49.814,22.777c0.971-0.269,1.914-0.501,2.853-0.8C51.165,11.004,43.99,0,32.713,0
	c-4.982,0-8.973,1.594-11.931,4.111c2.656-1.849,6.053-2.976,10.188-2.976C42.925,1.135,49.074,12.609,49.814,22.777 M32.479,29.733
	c-10.675,0-14.465-7.16-14.465-13.292c0-3.637,1.181-6.959,3.159-8.887c2.586-2.557,5.789-3.91,9.268-3.91
	c1.993,0,4.03,0.471,5.98,1.341c-2.395-1.298-5.03-2.008-7.709-2.008c-3.417,0-6.877,1.217-9.831,4.137
	c-2.17,2.116-3.415,5.626-3.415,9.496c0,6.836,4.289,14.124,15.273,14.124c1.017,0,2.078-0.044,3.184-0.179
	c-1.705,1.26-3.783,1.755-6.047,1.844c-1.979-0.028-4-0.536-5.875-1.421c2.297,1.361,4.928,2.187,7.595,2.224
	c2.756-0.108,4.902-0.77,6.599-2.023l2.75-2.028l-3.368,0.409C34.611,29.679,33.597,29.733,32.479,29.733 M78.984,3.975H60.307
	l-0.182,0.09l-3.711,1.267h20.487c-1.478,3.688-4.3,8.265-7.903,11.457C67.429,24.88,58.75,27.444,47.838,38.86
	c-0.006,0.325-0.007,0.642-0.007,0.946v2.258l1.521-1.643c4.57-4.945,8.858-8.355,12.303-11.094
	c5.18-4.113,8.941-7.114,10.059-12.229c3.857-3.511,6.76-8.573,8.087-11.888l0.495-1.236H78.984z M39.202,35.887
	c0.325,1.485,1.05,2.641,1.683,3.564l-0.17-0.859c-0.222-1.144-0.366-2.101-0.443-2.927c0.071-2.555,1.017-5.711,7.079-8.229
	c0.002-0.271,0.004-0.535,0.004-0.796v-0.898C39.878,28.213,38.379,32.107,39.202,35.887"/>
<polygon fill="#3E3023" points="37.788,61.466 36.824,61.466 36.824,57.9 33.926,57.9 33.926,61.466 32.952,61.466 32.952,53.66 
	33.926,53.66 33.926,57.011 36.824,57.011 36.824,53.66 37.788,53.66 "/>
<path fill="#3E3023" d="M45.884,56.272v2.582c0,1.813-0.656,2.734-2.511,2.734c-1.854,0-2.509-0.921-2.509-2.734v-2.582
	c0-1.813,0.655-2.734,2.509-2.734C45.229,53.538,45.884,54.459,45.884,56.272 M41.878,58.874c0,1.197,0.277,1.834,1.495,1.834
	c1.241,0,1.496-0.637,1.496-1.834v-2.622c0-1.189-0.266-1.834-1.496-1.834c-1.229,0-1.495,0.645-1.495,1.834V58.874z"/>
<polygon fill="#3E3023" points="50.436,61.466 50.436,54.552 48.551,54.552 48.551,53.66 53.304,53.66 53.304,54.552 51.409,54.552 
	51.409,61.466 "/>
<polygon fill="#3E3023" points="57.057,57.03 59.732,57.03 59.732,57.892 57.057,57.892 57.057,60.606 60.212,60.606 60.212,61.466 
	56.083,61.466 56.083,53.66 60.11,53.66 60.11,54.521 57.057,54.521 "/>
<polygon fill="#3E3023" points="67.029,61.466 63.155,61.466 63.155,53.66 64.129,53.66 64.129,60.586 67.029,60.586 "/>
<polygon fill="#3E3023" points="3.19,69.115 5.906,81.604 8.622,69.115 11.707,69.115 7.695,84.793 4.012,84.793 0,69.115 "/>
<path fill="#3E3023" d="M27.096,74.443v5.021c0,3.662-1.625,5.575-5.452,5.575c-3.806,0-5.432-1.913-5.432-5.575v-5.021
	c0-3.661,1.625-5.574,5.432-5.574C25.47,68.869,27.096,70.782,27.096,74.443 M19.195,79.566c0,1.956,0.617,2.901,2.449,2.901
	c1.873,0,2.469-0.945,2.469-2.901v-5.225c0-1.936-0.618-2.901-2.469-2.901s-2.449,0.966-2.449,2.901V79.566z"/>
<polygon fill="#3E3023" points="41.476,84.793 32.979,84.793 32.979,69.115 35.838,69.115 35.838,82.222 41.476,82.222 "/>
<path fill="#3E3023" d="M53.202,80.904h-4.588l-1.007,3.889h-2.901l4.568-15.678h3.415l4.567,15.678h-3.066L53.202,80.904z
	 M49.293,78.271h3.25l-1.604-6.337L49.293,78.271z"/>
<path fill="#3E3023" d="M65.032,78.93v5.863h-2.818V69.115h4.567c3.436,0,5.267,1.338,5.267,4.608v0.433
	c0,2.099-0.762,3.312-2.141,3.95l2.635,6.687h-3.189l-2.037-5.863H65.032z M65.032,76.337h1.872c1.729,0,2.243-0.555,2.243-2.222
	v-0.247c0-1.791-0.742-2.14-2.346-2.14h-1.77V76.337z"/>
<rect x="77.561" y="69.115" fill="#3E3023" width="2.86" height="15.678"/>
<polygon fill="#3E3023" points="94.534,84.793 90.727,78.064 89.307,78.064 89.307,84.793 86.448,84.793 86.448,69.115 
	89.307,69.115 89.307,75.555 90.727,75.555 94.102,69.115 97.434,69.115 93.093,76.686 98.011,84.793 "/>
</svg>
