<?xml version="1.0" encoding="utf-8"?>
<!-- Generator: Adobe Illustrator 15.1.0, SVG Export Plug-In . SVG Version: 6.00 Build 0)  -->
<!DOCTYPE svg PUBLIC "-//W3C//DTD SVG 1.1//EN" "http://www.w3.org/Graphics/SVG/1.1/DTD/svg11.dtd">
<svg version="1.1" id="Layer_1" xmlns="http://www.w3.org/2000/svg" xmlns:xlink="http://www.w3.org/1999/xlink" x="0px" y="0px"
	 width="319.514px" height="85.04px" viewBox="27.013 7.189 319.514 85.04" enable-background="new 27.013 7.189 319.514 85.04"
	 xml:space="preserve">
<rect x="27.013" y="7.189" fill="#D10A11" width="319.514" height="85.04"/>
<g>
	<path fill="#FFFFFF" d="M49.326,29.863c1.145-6.489,5.039-7.788,8.169-7.788c6.183,0,7.557,3.589,10.686,13.359l6.032,18.702h0.153
		l6.03-18.702c3.13-9.771,4.505-13.359,10.687-13.359c3.13,0,7.023,1.299,8.169,7.788l4.886,27.939
		c0.992,5.649,2.061,11.833,2.061,13.663c0,2.75-2.138,5.88-5.802,5.88c-5.572,0-6.565-3.971-7.175-8.17l-3.664-24.121h-0.152
		l-8.321,26.718c-1.222,3.97-3.054,5.573-6.795,5.573c-3.74,0-5.572-1.604-6.792-5.573l-8.32-26.718h-0.153l-3.663,24.121
		c-0.612,4.199-1.604,8.17-7.177,8.17c-3.665,0-5.802-3.13-5.802-5.88c0-1.83,1.069-8.014,2.062-13.663L49.326,29.863z"/>
	<path fill="#FFFFFF" d="M121.998,32.534c2.213-6.03,4.122-11.223,10.305-11.223c6.335,0,8.244,5.191,10.458,11.223l11.91,32.137
		c1.604,4.353,1.831,5.802,1.831,7.635c0,3.055-2.442,5.039-5.955,5.039c-4.046,0-5.343-2.597-6.489-6.031l-1.525-4.885h-20.307
		l-1.527,4.885c-1.145,3.435-2.443,6.031-6.489,6.031c-3.511,0-5.954-1.984-5.954-5.039c0-1.833,0.229-3.282,1.832-7.635
		L121.998,32.534z M132.686,35.053h-0.153l-6.641,19.924h12.976L132.686,35.053z"/>
	<path fill="#FFFFFF" d="M159.326,28.642c0-4.352,2.595-6.565,6.183-6.565c3.587,0,6.184,2.214,6.184,6.565v36.793h13.285
		c3.894,0,6.183,2.139,6.183,5.726c0,3.435-2.289,5.726-6.183,5.726h-19.468c-3.207,0-6.183-2.215-6.183-6.184V28.642
		L159.326,28.642z"/>
	<path fill="#FFFFFF" d="M193.449,28.642c0-4.352,2.594-6.565,6.183-6.565c3.588,0,6.184,2.214,6.184,6.565v36.793h13.283
		c3.893,0,6.184,2.139,6.184,5.726c0,3.435-2.291,5.726-6.184,5.726H199.63c-3.205,0-6.183-2.215-6.183-6.184L193.449,28.642
		L193.449,28.642z"/>
	<path fill="#FFFFFF" d="M236.806,64.826c3.59,0,6.642,3.054,6.642,6.64c0,3.665-3.052,6.644-6.642,6.644
		c-3.588,0-6.642-2.978-6.642-6.644C230.165,67.879,233.217,64.826,236.806,64.826z"/>
	<path fill="#FFFFFF" d="M270.744,21.313c7.481,0,16.413,2.137,16.413,8.625c0,2.977-2.138,5.878-5.343,5.878
		c-2.901,0-5.954-2.595-10.764-2.595c-9.999,0-13.97,8.092-13.97,16.489c0,8.625,4.429,16.031,12.9,16.031
		c7.711,0,8.932-2.52,12.139-2.52c4.884,0,5.495,4.122,5.495,5.726c0,6.794-10.305,9.16-17.099,9.16
		c-17.1,0-26.719-12.824-26.719-28.397C243.796,33.221,254.41,21.313,270.744,21.313z"/>
	<path fill="#FFFFFF" d="M324.713,65.435c4.275,0,6.565,2.291,6.565,5.726s-2.29,5.726-6.565,5.726H297.31
		c-6.643,0-8.704-2.748-8.704-6.793c0-2.139,0.838-3.437,2.29-5.422l23.358-31.145h-18.243c-4.274,0-6.567-2.291-6.567-5.497
		s2.293-5.497,6.567-5.497h26.565c6.565,0,7.558,4.046,7.558,6.184c0,2.596-2.29,5.726-5.802,10.381l-19.771,26.337H324.713
		L324.713,65.435z"/>
</g>
</svg>
