<?xml version="1.0" encoding="utf-8"?>
<!-- Generator: Adobe Illustrator 15.1.0, SVG Export Plug-In . SVG Version: 6.00 Build 0)  -->
<!DOCTYPE svg PUBLIC "-//W3C//DTD SVG 1.1//EN" "http://www.w3.org/Graphics/SVG/1.1/DTD/svg11.dtd">
<svg version="1.1" id="Layer_1" xmlns="http://www.w3.org/2000/svg" xmlns:xlink="http://www.w3.org/1999/xlink" x="0px" y="0px"
	 width="302.081px" height="85.04px" viewBox="0 0 302.081 85.04" enable-background="new 0 0 302.081 85.04" xml:space="preserve">
<polygon fill="#004587" points="15.138,34.518 15.138,50.791 12.169,50.791 12.44,37.42 8.938,50.791 6.198,50.791 2.671,37.42 
	2.97,50.791 0,50.791 0,34.518 4.424,34.518 7.604,46.591 10.716,34.518 "/>
<polygon fill="#004587" points="22.141,37.236 22.141,41.064 29.979,41.064 29.979,43.692 22.141,43.692 22.141,48.044 
	31.293,48.044 31.293,50.79 19.147,50.79 19.147,34.519 30.72,34.519 30.72,37.236 "/>
<polygon fill="#004587" points="44.221,37.282 39.725,37.282 39.725,50.791 36.687,50.791 36.687,37.282 32.283,37.282 
	32.283,34.518 44.221,34.518 "/>
<path fill="#004587" d="M49.59,37.146v5.092h1.062c1.038,0,1.431-0.022,2.008-0.045c0.664-0.022,2.854-0.138,2.854-2.512
	c0-0.345-0.025-1.546-1.291-2.189c-0.642-0.326-1.428-0.346-3.223-0.346H49.59z M46.574,34.518h5.183
	c2.167,0.023,3.621,0.023,5.046,1.175c1.01,0.829,1.799,2.123,1.799,4.01c0,3.113-2.285,4.196-3.205,4.471l3.619,6.617h-3.476
	l-3.232-6.038H49.59v6.038h-3.016V34.518z"/>
<path fill="#004587" d="M68.486,36.89c-2.789,0-4.652,2.259-4.652,5.65c0,3.663,2.029,5.853,4.724,5.853
	c2.027,0,4.626-1.475,4.7-5.395C73.326,39.82,71.689,36.89,68.486,36.89 M68.467,51.202c-2.054,0-3.943-0.575-5.602-2.488
	c-1.61-1.868-2.165-3.987-2.165-6.038c0-4.979,3.36-8.573,7.809-8.573c4.035,0,7.813,2.996,7.792,8.55
	C76.275,47.307,73.466,51.202,68.467,51.202"/>
<path fill="#004587" d="M81.74,37.12v5.649h2.188c0.644,0,1.197,0,1.732-0.14c1.887-0.459,2-2.188,2-2.765
	c0-1.195-0.527-1.82-0.808-2.077c-0.757-0.643-1.815-0.668-2.807-0.668H81.74z M78.676,34.518h5.482c0.901,0,1.845,0,2.786,0.255
	c1.59,0.435,3.828,1.866,3.828,5.163c0,2.164-1.012,4.489-3.92,5.136c-0.898,0.207-1.748,0.207-2.742,0.207h-2.37v5.512h-3.064
	V34.518z"/>
<path fill="#004587" d="M99.988,36.89c-2.784,0-4.653,2.259-4.653,5.65c0,3.663,2.03,5.853,4.723,5.853
	c2.03,0,4.636-1.475,4.703-5.395C104.832,39.82,103.195,36.89,99.988,36.89 M99.968,51.202c-2.053,0-3.945-0.575-5.602-2.488
	c-1.611-1.868-2.166-3.987-2.166-6.038c0-4.979,3.364-8.573,7.811-8.573c4.033,0,7.816,2.996,7.791,8.55
	C107.781,47.307,104.969,51.202,99.968,51.202"/>
<polygon fill="#004587" points="113.129,48.024 119.578,48.024 119.578,50.79 110.06,50.79 110.06,34.497 113.129,34.497 "/>
<rect x="122.258" y="34.517" fill="#004587" width="2.995" height="16.273"/>
<polygon fill="#004587" points="139.608,37.282 135.117,37.282 135.117,50.791 132.073,50.791 132.073,37.282 127.67,37.282 
	127.67,34.518 139.608,34.518 "/>
<polygon fill="#004587" points="151.545,34.518 154.541,34.518 154.541,50.791 151.892,50.791 144.771,39.38 144.955,50.791 
	141.98,50.791 141.98,34.518 144.727,34.518 151.913,46.015 "/>
<path fill="#004587" d="M159.219,34.517h2.995v16.274h-2.995V34.517z M164.546,31.083l-3.323,2.468h-2.346l1.703-2.468H164.546z"/>
<path fill="#004587" d="M13.207,65.246v10.253c-0.027,1.846-0.027,3.363-1.757,4.841c-1.659,1.452-3.799,1.589-4.905,1.589
	c-0.991,0-1.964-0.115-2.879-0.437c-1.939-0.667-2.974-2.078-3.347-3.296c-0.208-0.717-0.208-1.222-0.225-3.248v-9.702h3.039v9.998
	c0,0.69-0.022,1.361,0.207,1.984c0.629,1.565,2.326,1.75,3.298,1.75c0.481,0,1.702-0.021,2.603-0.807
	c0.896-0.807,0.896-1.726,0.896-3.091v-9.835H13.207z"/>
<polygon fill="#004587" points="26.319,65.246 29.308,65.246 29.308,81.514 26.66,81.514 19.539,70.106 19.725,81.514 
	16.753,81.514 16.753,65.246 19.495,65.246 26.683,76.743 "/>
<rect x="33.989" y="65.244" fill="#004587" width="3" height="16.271"/>
<polygon fill="#004587" points="52.585,65.246 47.958,81.514 43.854,81.514 39.059,65.246 42.261,65.246 45.899,78.08 
	49.433,65.246 "/>
<polygon fill="#004587" points="57.585,67.964 57.585,71.789 65.423,71.789 65.423,74.415 57.585,74.415 57.585,78.771 
	66.737,78.771 66.737,81.514 54.592,81.514 54.592,65.246 66.157,65.246 66.157,67.964 "/>
<path fill="#004587" d="M72.819,67.871v5.093h1.063c1.038,0,1.426-0.024,2.002-0.045c0.668-0.022,2.857-0.139,2.857-2.515
	c0-0.343-0.025-1.541-1.291-2.19c-0.644-0.318-1.426-0.343-3.222-0.343H72.819z M69.798,65.246h5.188
	c2.168,0.021,3.621,0.021,5.048,1.175c1.01,0.829,1.797,2.115,1.797,4.007c0,3.113-2.283,4.194-3.205,4.474l3.619,6.613h-3.482
	l-3.226-6.034h-2.719v6.034h-3.021V65.246z"/>
<polygon fill="#004587" points="96.558,78.771 96.558,81.514 83.855,81.514 83.855,79.025 92.756,67.987 84.618,67.987 
	84.618,65.246 96.558,65.246 96.558,67.847 88.009,78.771 "/>
<rect x="100.031" y="65.244" fill="#004587" width="2.996" height="16.271"/>
<polygon fill="#004587" points="117.388,68.005 112.89,68.005 112.89,81.515 109.854,81.515 109.854,68.005 105.45,68.005 
	105.45,65.244 117.388,65.244 "/>
<path fill="#004587" d="M125.644,75.686l-2.236-7.49l-2.26,7.49H125.644z M126.45,78.335h-6.106l-0.947,3.179h-3.25l5.482-16.269
	h3.458l5.558,16.269h-3.251L126.45,78.335z"/>
<path fill="#004587" d="M142.073,67.847v5.648h2.188c0.645,0,1.197,0,1.733-0.142c1.885-0.458,2-2.19,2-2.763
	c0-1.2-0.529-1.822-0.805-2.076c-0.763-0.645-1.818-0.668-2.814-0.668H142.073z M139.01,65.246h5.487c0.895,0,1.84,0,2.786,0.254
	c1.585,0.434,3.822,1.867,3.822,5.159c0,2.166-1.011,4.495-3.914,5.141c-0.898,0.208-1.753,0.208-2.745,0.208h-2.373v5.507h-3.063
	V65.246z"/>
<path fill="#004587" d="M156.315,67.871v5.093h1.063c1.032,0,1.428-0.024,2.005-0.045c0.665-0.022,2.855-0.139,2.855-2.515
	c0-0.343-0.024-1.541-1.289-2.19c-0.649-0.318-1.43-0.343-3.227-0.343H156.315z M153.292,65.246h5.191
	c2.166,0.021,3.617,0.021,5.045,1.175c1.018,0.829,1.799,2.115,1.799,4.007c0,3.113-2.28,4.194-3.204,4.474l3.615,6.613h-3.481
	l-3.221-6.034h-2.721v6.034h-3.023V65.246z"/>
<path fill="#004587" d="M175.978,75.686l-2.242-7.49l-2.258,7.49H175.978z M176.777,78.335h-6.106l-0.946,3.179h-3.247l5.485-16.269
	h3.455l5.559,16.269h-3.251L176.777,78.335z"/>
<polygon fill="#004587" points="195.583,65.246 195.583,81.514 192.516,81.514 192.516,74.117 185.537,74.117 185.537,81.514 
	182.493,81.514 182.493,65.246 185.537,65.246 185.537,71.395 192.516,71.395 192.516,65.246 "/>
<path fill="#004587" d="M207.082,75.686l-2.236-7.49l-2.257,7.49H207.082z M207.889,78.335h-6.103l-0.948,3.179h-3.249l5.48-16.269
	h3.458l5.554,16.269h-3.247L207.889,78.335z"/>
<path fill="#617BB4" d="M268.992,1.096h7.217c1.954,0,3.651,0.702,5.116,2.106c1.465,1.399,2.194,3.108,2.194,5.118
	c0,2.01-0.696,3.718-2.104,5.122c-1.397,1.401-3.137,2.098-5.206,2.098h-7.217V1.096z M294.498,38.945
	c-5.061,5.062-11.155,7.588-18.289,7.588c-2.197,0-4.328-0.268-6.401-0.82l-0.815-0.187V25.872h7.217
	c4.752,0,8.897-1.706,12.438-5.116c3.474-3.352,5.214-7.498,5.214-12.437c0-1.28-0.218-2.775-0.649-4.482L292.208,0l2.743,2.925
	c4.755,5.057,7.13,8.985,7.13,15.756C302.081,25.81,299.556,33.893,294.498,38.945 M258.654,39.77l-1.732-2.015
	c-4.326-4.876-6.492-10.572-6.492-17.094s2.166-12.222,6.492-17.097l1.732-2.009V39.77z"/>
<path fill="#617BB4" d="M245.956,37.821l-1.831,2.015V8.383c0-1.397-0.181-2.894-0.546-4.48l-1.009-3.841l2.743,2.93
	c4.757,5.06,7.134,10.972,7.134,17.735C252.447,27.25,250.283,32.943,245.956,37.821 M233.796,45.593l-0.732,0.182
	c-2.128,0.555-4.298,0.822-6.491,0.822h-7.221V8.383c0-2.013,0.705-3.715,2.103-5.123c1.397-1.397,3.107-2.096,5.118-2.096
	c2.012,0,3.717,0.699,5.121,2.096c1.402,1.408,2.103,3.11,2.103,5.123V45.593z M209.021,46.597h-7.224
	c-2.25,0-4.418-0.268-6.496-0.822l-0.728-0.182V8.383c0-2.013,0.694-3.715,2.101-5.123c1.408-1.397,3.109-2.096,5.123-2.096
	c2.011,0,3.711,0.699,5.118,2.096c1.399,1.408,2.105,3.11,2.105,5.123V46.597z M185.794,0.062l-1.003,3.841
	c-0.366,1.586-0.548,3.083-0.548,4.48v31.453l-1.829-2.015c-4.271-4.878-6.401-10.571-6.401-17.094
	c0-6.763,2.342-12.675,7.037-17.735L185.794,0.062z"/>
<path fill="#617BB4" d="M270.082,82.205l-2.744,2.835l1.005-3.84c0.43-1.645,0.641-3.109,0.641-4.392V45.27l1.736,2.011
	c4.325,4.878,6.484,10.577,6.484,17.094C277.204,71.139,274.838,77.086,270.082,82.205 M258.654,39.597v37.211
	c0,2.011-0.707,3.721-2.105,5.12c-1.406,1.402-3.139,2.104-5.214,2.104c-2.014,0-3.715-0.701-5.121-2.104
	c-1.399-1.399-2.096-3.109-2.096-5.12V39.597l0.822-0.179c2.069-0.548,4.204-0.829,6.395-0.829c2.201,0,4.363,0.281,6.499,0.829
	L258.654,39.597z M235.427,85.04l-2.743-2.835c-4.747-5.002-7.122-10.948-7.122-17.83c0-6.517,2.159-12.216,6.489-17.094
	l1.738-2.011v31.538c0,1.645,0.207,3.106,0.639,4.392L235.427,85.04z"/>
</svg>
