<?xml version="1.0" encoding="utf-8"?>
<!-- Generator: Adobe Illustrator 15.1.0, SVG Export Plug-In . SVG Version: 6.00 Build 0)  -->
<!DOCTYPE svg PUBLIC "-//W3C//DTD SVG 1.1//EN" "http://www.w3.org/Graphics/SVG/1.1/DTD/svg11.dtd">
<svg version="1.1" id="Layer_1" xmlns="http://www.w3.org/2000/svg" xmlns:xlink="http://www.w3.org/1999/xlink" x="0px" y="0px"
	 width="254.747px" height="85.04px" viewBox="-12.736 -4.251 254.747 85.04" enable-background="new -12.736 -4.251 254.747 85.04"
	 xml:space="preserve">
<path fill="#2B6C9A" d="M170.03,29.979l12.266,15.705c2.464,3.254,3.871,4.146,6.244,4.146c3.606,0,6.597-2.917,6.597-6.433
	c0-1.671-0.615-2.989-2.813-5.716c-3.331-4.138-6.661-8.273-9.987-12.409c-1.01-0.908-0.498-2.319,0.521-3.307l6.213-6.007
	c2.726-2.64,3.518-3.869,3.518-5.806c0-3.605-2.814-6.508-6.332-6.508c-2.021,0-3.342,0.793-5.893,3.43
	c-3.174,3.247-6.351,6.492-9.526,9.738c-1.38,1.289-2.346,0.508-2.346-0.643V4.366c0-3.166-0.107-3.858-0.879-5.364
	c-0.988-1.924-3.256-3.253-5.541-3.253c-2.374,0-4.643,1.329-5.63,3.253c-0.771,1.506-0.878,2.289-0.878,5.364v36.833
	c0,3.167,0.092,3.868,0.878,5.363c0.972,1.847,3.257,3.27,5.63,3.27c2.285,0,4.571-1.42,5.539-3.27
	c0.791-1.493,0.879-2.285,0.879-5.363V30.532C168.489,29.494,169.374,29.14,170.03,29.979"/>
<path fill="#2B6C9A" d="M142.007,34.76c-0.961,0-2.012,0.262-2.8,0.612c-6.824,3.326-7.524,3.587-10.586,3.587
	c-0.648,0-1.26-0.039-1.847-0.118c-2.871-0.395-5.047-1.759-6.695-4.125c-1.329-1.908-0.55-3.368,1.364-3.368h5.332h15.585
	c3.937,0,5.601-1.486,5.601-5.075c0-12.367-9.278-22.135-21.186-22.224l-0.165-0.004c-12.689,0-22.053,10.153-22.053,23.717
	c0,12.754,9.172,21.886,22.218,22.393c0.379,0.016,0.762,0.024,1.146,0.024c9.889,0,19.252-4.916,19.252-10.167
	C147.171,37.299,144.633,34.76,142.007,34.76 M118.742,20.547c1.736-4.375,4.266-5.972,8.031-5.999l0.095-0.001
	c2.625,0,5.102,1.208,6.563,3.327c0.516,0.746,0.922,1.218,1.276,2.23c0.498,1.434,0.173,2.495-1.604,2.495h-6.33l-6.808-0.001
	C118.999,22.597,118.348,21.543,118.742,20.547"/>
<path fill="#2B6C9A" d="M39.476,41.2c0,3.165,0.092,3.866,0.88,5.361c0.969,1.845,3.252,3.27,5.627,3.27
	c2.286,0,4.57-1.425,5.54-3.27c0.788-1.495,0.88-2.285,0.88-5.361V12.489c0-3.167-0.109-3.861-0.88-5.364
	C50.536,5.2,48.269,3.87,45.983,3.87c-2.375,0-4.641,1.331-5.627,3.255c-0.773,1.504-0.88,2.287-0.88,5.364V41.2z"/>
<path fill="#2B6C9A" d="M80.808,29.942l-6.506-19.349c-1.67-4.924-3.43-6.683-6.949-6.683c-3.605,0-6.597,2.903-6.597,6.331
	c0,1.408,0.265,2.462,1.232,4.837l11.433,28.493c1.67,4.31,4.134,6.259,7.652,6.259c3.78,0,5.54-1.687,7.741-7.138l10.992-27.525
	c0.969-2.288,1.231-3.43,1.231-4.838c0-3.43-3.08-6.419-6.684-6.419c-3.519,0-5.367,1.672-7.037,6.683L80.808,29.942z"/>
<path fill="#2B6C9A" d="M236.206,10.771c-4.047-4.398-9.938-7.037-15.83-7.037c-12.136,0-21.634,10.027-21.634,22.867
	c0,6.685,1.937,12.225,5.804,16.445c3.939,4.376,9.882,7.024,15.83,7.05l0.088,0.001c12.224,0,21.547-10.04,21.547-23.144
	C242.01,20.62,239.99,14.905,236.206,10.771 M220.376,38.032c-0.057,0.001-0.115,0.003-0.176,0.003
	c-5.011,0-8.707-4.749-8.707-11.258c0-6.157,3.783-10.992,8.619-10.992c0.088,0,0.178,0.002,0.264,0.003
	c4.977,0.167,8.884,5.026,8.884,11.076C229.26,33.036,225.309,37.917,220.376,38.032"/>
<path fill="#2B6C9A" d="M-12.736,41.694c0,3.155,0.093,3.857,0.938,5.348c1.029,1.84,3.468,3.257,5.996,3.257
	c2.434,0,4.873-1.417,5.904-3.257c0.841-1.491,0.935-2.281,0.935-5.348V23.109c0-4.295,3.374-7.625,7.778-7.625
	c4.684,0,7.682,3.155,7.682,8.152v18.058c0,3.155,0.093,3.856,0.938,5.347c1.032,1.839,3.468,3.257,5.997,3.257
	c2.438,0,4.87-1.418,5.903-3.257c0.84-1.495,0.937-2.28,0.937-5.347V22.963c0-12.12-8.603-18.612-20.656-18.612
	c-19.729,0-22.35,11.781-22.35,17.158V41.694z"/>
<path fill="#2B6C9A" d="M-2.718,75.715c0,2.802-1.887,5.072-5.007,5.072c-3.107,0-4.963-2.281-4.963-5.082v-5.364
	c0-2.784,1.857-5.07,4.946-5.07c3.097,0,4.953,2.252,4.953,5.037v0.086h-2.55v-0.099c0-1.451-0.894-2.614-2.404-2.614
	c-1.556,0-2.395,1.201-2.395,2.67v5.354c0,1.483,0.837,2.672,2.412,2.672c1.556,0,2.448-1.188,2.448-2.662V75.47h2.56V75.715z"/>
<path fill="#2B6C9A" d="M9.816,65.604v10.101c0,2.841-1.861,5.083-4.928,5.083s-4.928-2.242-4.928-5.083V65.604h2.549v10.111
	c0,1.511,0.844,2.663,2.379,2.663c1.5,0,2.381-1.151,2.381-2.663V65.604H9.816z"/>
<path fill="#2B6C9A" d="M19.512,69.934c0-1.46-1.064-2.251-2.164-2.251c-1.024,0-1.964,0.574-1.964,1.654
	c0,1.076,0.853,1.638,2.037,2.081l1.353,0.506c2.112,0.804,3.565,2.088,3.565,4.424c0,2.863-2.421,4.439-4.898,4.439
	c-2.552,0-4.949-1.687-4.949-4.836v-0.316h2.549v0.3c0,1.468,1.004,2.442,2.4,2.442c1.302,0,2.349-0.668,2.349-1.911
	c0-1.23-1.006-1.776-2.15-2.216l-1.362-0.521c-2.274-0.89-3.441-2.102-3.441-4.249c0-2.463,1.873-4.215,4.512-4.215
	c2.661,0,4.668,1.918,4.668,4.54v0.436h-2.504L19.512,69.934L19.512,69.934z"/>
<polygon fill="#2B6C9A" points="33.977,68.003 30.412,68.003 30.412,80.452 27.863,80.452 27.863,68.003 24.277,68.003 
	24.277,65.604 33.977,65.604 "/>
<path fill="#2B6C9A" d="M46.425,70.351v5.344c0,2.815-1.918,5.094-5.126,5.094c-3.21,0-5.128-2.278-5.128-5.094v-5.344
	c0-2.794,1.928-5.08,5.128-5.08C44.496,65.269,46.425,67.557,46.425,70.351 M38.719,70.351v5.354c0,1.484,0.902,2.673,2.58,2.673
	c1.678,0,2.578-1.188,2.578-2.673v-5.354c0-1.48-0.911-2.67-2.578-2.67C39.63,67.679,38.719,68.87,38.719,70.351"/>
<polygon fill="#2B6C9A" points="61.883,65.604 61.883,80.452 59.334,80.452 59.334,70.862 55.922,75.707 55.382,75.707 
	51.985,70.877 51.985,80.452 49.436,80.452 49.436,65.604 51.177,65.604 55.655,72.193 60.15,65.604 "/>
<path fill="#2B6C9A" d="M80.382,76.006c0,2.331-1.494,4.444-4.507,4.444h-4.159h-1.099V65.604h2.548h1.84
	c3.178,0,4.4,2.052,4.4,4.007c0,1.088-0.375,2.077-1.255,2.739C79.638,73.065,80.382,74.501,80.382,76.006 M73.164,67.991v3.629
	h1.724c1.265,0,1.95-0.714,1.95-1.818c0-1.098-0.676-1.811-1.938-1.811H73.164z M77.799,76.006c0-1.194-0.817-2.011-2.033-2.011
	h-2.602v4.07h2.602C76.982,78.066,77.799,77.299,77.799,76.006"/>
<path fill="#2B6C9A" d="M92.898,65.604v10.101c0,2.841-1.861,5.083-4.927,5.083s-4.927-2.242-4.927-5.083V65.604h2.548v10.111
	c0,1.511,0.844,2.663,2.379,2.663c1.5,0,2.379-1.151,2.379-2.663V65.604H92.898z"/>
<rect x="96.117" y="65.604" fill="#2B6C9A" width="2.548" height="14.849"/>
<polygon fill="#2B6C9A" points="104.493,78.054 109.789,78.054 109.789,80.452 101.945,80.452 101.945,65.604 104.493,65.604 "/>
<polygon fill="#2B6C9A" points="119.645,68.003 116.079,68.003 116.079,80.452 113.528,80.452 113.528,68.003 109.943,68.003 
	109.943,65.604 119.645,65.604 "/>
<polygon fill="#2B6C9A" points="139.724,65.604 139.724,80.452 137.177,80.452 137.177,70.862 133.766,75.707 133.224,75.707 
	129.824,70.877 129.824,80.452 127.276,80.452 127.276,65.604 129.021,65.604 133.495,72.193 137.991,65.604 "/>
<path fill="#2B6C9A" d="M153.003,70.351v5.344c0,2.815-1.917,5.094-5.127,5.094c-3.213,0-5.127-2.278-5.127-5.094v-5.344
	c0-2.794,1.928-5.08,5.127-5.08C151.076,65.271,153.003,67.557,153.003,70.351 M145.297,70.351v5.354
	c0,1.484,0.901,2.673,2.578,2.673c1.678,0,2.578-1.188,2.578-2.673v-5.354c0-1.48-0.91-2.67-2.578-2.67
	C146.208,67.681,145.297,68.87,145.297,70.351"/>
<polygon fill="#2B6C9A" points="166.191,65.604 166.191,80.452 163.896,80.452 158.561,70.687 158.561,80.452 156.015,80.452 
	156.015,65.604 158.404,65.604 163.653,75.031 163.653,65.604 "/>
<path fill="#2B6C9A" d="M179.46,70.351v5.344c0,2.815-1.917,5.094-5.128,5.094c-3.208,0-5.126-2.278-5.126-5.094v-5.344
	c0-2.794,1.927-5.08,5.126-5.08C177.533,65.271,179.46,67.557,179.46,70.351 M171.755,70.351v5.354c0,1.484,0.9,2.673,2.578,2.673
	s2.577-1.188,2.577-2.673v-5.354c0-1.48-0.909-2.67-2.577-2.67C172.668,67.679,171.755,68.87,171.755,70.351"/>
<path fill="#2B6C9A" d="M191.572,70.177c0,2.847-1.886,4.579-4.879,4.579h-1.673v5.694h-2.552V65.604h2.552h1.673
	C189.686,65.604,191.572,67.341,191.572,70.177 M188.97,70.177c0-1.373-0.789-2.174-2.277-2.174h-1.673v4.347h1.673
	C188.169,72.35,188.97,71.539,188.97,70.177"/>
<path fill="#2B6C9A" d="M204.264,70.351v5.344c0,2.815-1.916,5.094-5.127,5.094c-3.208,0-5.126-2.278-5.126-5.094v-5.344
	c0-2.794,1.929-5.08,5.126-5.08C202.336,65.269,204.264,67.557,204.264,70.351 M196.559,70.351v5.354
	c0,1.484,0.899,2.673,2.577,2.673c1.679,0,2.578-1.188,2.578-2.673v-5.354c0-1.48-0.91-2.67-2.578-2.67
	C197.47,67.679,196.559,68.87,196.559,70.351"/>
<path fill="#2B6C9A" d="M217.253,70.351v5.344c0,2.815-1.92,5.094-5.129,5.094c-3.21,0-5.127-2.278-5.127-5.094v-5.344
	c0-2.794,1.929-5.08,5.127-5.08C215.323,65.269,217.253,67.557,217.253,70.351 M209.546,70.351v5.354c0,1.484,0.9,2.673,2.578,2.673
	s2.58-1.188,2.58-2.673v-5.354c0-1.48-0.912-2.67-2.58-2.67C210.458,67.679,209.546,68.87,209.546,70.351"/>
<polygon fill="#2B6C9A" points="222.812,78.054 228.108,78.054 228.108,80.452 220.264,80.452 220.264,65.604 222.812,65.604 "/>
<path fill="#2B6C9A" d="M237.152,69.934c0-1.46-1.064-2.251-2.161-2.251c-1.024,0-1.965,0.574-1.965,1.654
	c0,1.076,0.853,1.638,2.036,2.081l1.354,0.506c2.111,0.804,3.565,2.088,3.565,4.424c0,2.863-2.421,4.439-4.896,4.439
	c-2.554,0-4.948-1.687-4.948-4.836v-0.316h2.547v0.3c0,1.468,1.006,2.442,2.401,2.442c1.301,0,2.348-0.668,2.348-1.911
	c0-1.23-1.006-1.776-2.151-2.216l-1.36-0.521c-2.275-0.89-3.442-2.102-3.442-4.249c0-2.463,1.873-4.215,4.512-4.215
	c2.66,0,4.668,1.918,4.668,4.54v0.436h-2.507L237.152,69.934L237.152,69.934z"/>
</svg>
