<?xml version="1.0" encoding="utf-8"?>
<!-- Generator: Adobe Illustrator 15.1.0, SVG Export Plug-In . SVG Version: 6.00 Build 0)  -->
<!DOCTYPE svg PUBLIC "-//W3C//DTD SVG 1.1//EN" "http://www.w3.org/Graphics/SVG/1.1/DTD/svg11.dtd">
<svg version="1.1" id="Layer_1" xmlns="http://www.w3.org/2000/svg" xmlns:xlink="http://www.w3.org/1999/xlink" x="0px" y="0px"
	 width="189.666px" height="85.04px" viewBox="202.807 378.136 189.666 85.04"
	 enable-background="new 202.807 378.136 189.666 85.04" xml:space="preserve">
<path fill="#004169" d="M355.471,445.616h2.856v-2.21h-2.856V445.616z M341.091,443.409v12.948c0,1.923,1.564,3.485,3.487,3.485
	h9.94v-2.049h-9.135c-0.794,0-1.437-0.643-1.437-1.437v-7.877h1.382c0.815,0,1.619-0.331,2.195-0.912l1.134-1.137h-4.716v-3.028
	h-2.856v0.004h0.005V443.409z M302.396,443.409v6.487h-10.144v-6.487h-2.974v16.434h2.974v-7.781h10.144v7.781h2.971v-16.434
	H302.396z M379.984,446.433c-1.92,0-3.484,1.564-3.484,3.487v6.438c0,1.923,1.564,3.485,3.484,3.485h8.768
	c0.289,0,0.565-0.181,0.798-0.413c-0.027,0.235-0.06,0.463-0.06,0.463c-0.229,0.517-0.744,0.853-1.314,0.853h-7.131
	c-0.818,0-1.624,0.331-2.192,0.909l-1.142,1.14h11.277c1.921,0,3.485-1.563,3.485-3.485v-9.39c0-1.923-1.564-3.487-3.485-3.487
	H379.984z M379.357,456.358v-6.438c0-0.791,0.643-1.438,1.433-1.438h7.386c0.801,0,1.44,0.647,1.44,1.438v6.438
	c0,0.794-0.643,1.437-1.44,1.437h-7.386C380,457.794,379.357,457.152,379.357,456.358 M362.927,446.433
	c-1.925,0-3.489,1.564-3.489,3.487v9.924h2.856v-9.924c0-0.791,0.648-1.436,1.439-1.436h7.385c0.383,0,0.744,0.148,1.016,0.418
	c0.272,0.274,0.42,0.632,0.42,1.018v9.924h2.857v-9.924c0-1.923-1.56-3.487-3.484-3.487H362.927L362.927,446.433z M355.471,459.844
	h2.856v-13.408h-2.856V459.844z M327.173,446.433c-1.829,0-3.316,1.493-3.316,3.322c0,1.826,1.28,3.321,3.119,3.623l8.521,1.426
	c0.818,0.134,1.409,0.831,1.409,1.661c0,0.722-0.581,1.33-1.271,1.33h-8.702c-0.821,0-1.614,0.331-2.195,0.912l-1.137,1.137h12.843
	c1.831,0,3.321-1.515,3.321-3.379c0-1.834-1.317-3.381-3.121-3.68l-8.527-1.427c-0.828-0.136-1.404-0.796-1.404-1.604
	c0-0.702,0.568-1.271,1.269-1.271h8.646c0.815,0,1.614-0.334,2.192-0.915l1.14-1.137H327.173L327.173,446.433z M310.255,446.433
	c-1.926,0-3.492,1.564-3.492,3.487v6.438c0,1.923,1.564,3.485,3.492,3.485h8.996c1.926,0,3.485-1.563,3.485-3.485v-6.438
	c0-1.923-1.56-3.487-3.485-3.487H310.255z M309.627,456.358v-6.438c0-0.386,0.144-0.743,0.418-1.018
	c0.271-0.27,0.63-0.421,1.016-0.421h7.385c0.386,0,0.744,0.151,1.017,0.421c0.273,0.276,0.42,0.632,0.42,1.018v6.438
	c0,0.794-0.643,1.437-1.437,1.437h-7.385C310.27,457.794,309.627,457.152,309.627,456.358"/>
<path fill="#0081AD" d="M208.138,443.409c-2.49,0-4.442,1.928-4.442,4.384v0.129c0,1.856,1.466,3.45,3.488,3.792l7.94,1.327
	c0.915,0.113,1.629,0.862,1.629,1.705v0.378c0,1.485-1.09,2.559-2.59,2.559h-7.885c-0.83,0-1.645,0.338-2.232,0.922l-1.239,1.24
	h11.975c2.772,0,4.942-2.147,4.942-4.886v-0.216c0-1.918-1.514-3.605-3.445-3.843l-7.933-1.327
	c-0.974-0.163-1.679-0.858-1.679-1.654v-0.127c0-1.285,0.944-2.22,2.247-2.22h7.054c0.836,0,1.648-0.336,2.239-0.922l1.238-1.24
	L208.138,443.409L208.138,443.409z M220.722,446.617v9.74c0,1.923,1.567,3.485,3.485,3.485h9.004c1.922,0,3.482-1.563,3.482-3.485
	v-9.926h-2.854v9.926c0,0.794-0.644,1.437-1.438,1.437h-7.39c-0.789,0-1.432-0.643-1.432-1.437v-9.936L220.722,446.617z
	 M275.761,446.433c-1.923,0-3.487,1.564-3.487,3.487v9.924h2.859v-9.924c0-0.386,0.151-0.743,0.418-1.018
	c0.272-0.27,0.633-0.418,1.016-0.418h5.774c0.817,0,1.618-0.334,2.197-0.915l1.139-1.137H275.761L275.761,446.433z M258.684,446.433
	c-1.919,0-3.482,1.564-3.482,3.487v6.438c0,1.923,1.563,3.485,3.482,3.485h11.762v-2.049h-10.955c-0.791,0-1.438-0.643-1.438-1.437
	v-2.194h13.117v-4.244c0-1.923-1.564-3.487-3.486-3.487H258.684z M258.053,449.92c0-0.388,0.153-0.743,0.423-1.018
	c0.271-0.27,0.628-0.418,1.015-0.418h7.388c0.383,0,0.741,0.148,1.014,0.418c0.271,0.276,0.423,0.632,0.423,1.018v2.192h-10.26
	v-2.192H258.053z M241.53,446.433c-1.921,0-3.485,1.564-3.485,3.487v10c0,0.855,0.497,1.706,1.327,2.27l1.53,0.986v-3.81
	c0.232,0.268,0.541,0.475,0.92,0.475h8.712c1.919,0,3.482-1.562,3.482-3.484v-6.438c0-1.926-1.563-3.487-3.482-3.487L241.53,446.433
	L241.53,446.433z M240.902,456.358v-6.438c0-0.386,0.15-0.741,0.423-1.018c0.271-0.27,0.63-0.421,1.014-0.421h7.387
	c0.384,0,0.744,0.151,1.017,0.421c0.27,0.274,0.417,0.632,0.417,1.018v6.438c0,0.794-0.643,1.437-1.434,1.437h-7.387
	C241.545,457.794,240.902,457.152,240.902,456.358"/>
<polygon fill="#004169" points="306.733,378.228 306.733,399.133 274.894,399.133 274.894,378.228 264.481,378.228 264.481,432.02 
	274.894,432.02 274.894,406.952 306.733,406.952 306.733,432.02 317.151,432.02 317.151,378.228 "/>
<path fill="#0081AD" d="M222.009,378.228c-8.261,0-14.738,6.388-14.738,14.548v0.397c0,6.188,4.879,11.498,11.594,12.629
	l25.592,4.278c2.748,0.343,4.886,2.573,4.886,5.086v1.213c0,4.538-3.329,7.829-7.919,7.829H216.02c-2.79,0-5.526,1.135-7.501,3.106
	l-4.709,4.706h39.598c9.169,0,16.355-7.096,16.355-16.159v-0.693c0-6.389-5.04-12.012-11.471-12.802l-25.547-4.269
	c-2.932-0.498-5.06-2.563-5.06-4.922v-0.397c0-3.9,2.872-6.733,6.829-6.733h22.729c2.793,0,5.527-1.133,7.509-3.109l4.701-4.706
	L222.009,378.228L222.009,378.228z"/>
<path fill="#004169" d="M365.98,378.136c-3.571,0-6.894,1.923-8.668,5.011L329.19,432.02h12.215l30.999-53.884H365.98
	L365.98,378.136z"/>
<path fill="#004169" d="M378.64,378.136l-31.002,53.884h6.432c3.562,0,6.881-1.918,8.665-5.01l28.122-48.874H378.64L378.64,378.136z
	"/>
<rect x="324.321" y="389.157" fill="#004169" width="9.113" height="9.112"/>
<rect x="324.321" y="407.304" fill="#004169" width="9.113" height="9.115"/>
</svg>
