<?xml version="1.0" encoding="utf-8"?>
<!-- Generator: Adobe Illustrator 15.1.0, SVG Export Plug-In . SVG Version: 6.00 Build 0)  -->
<!DOCTYPE svg PUBLIC "-//W3C//DTD SVG 1.1//EN" "http://www.w3.org/Graphics/SVG/1.1/DTD/svg11.dtd">
<svg version="1.1" id="Layer_1" xmlns="http://www.w3.org/2000/svg" xmlns:xlink="http://www.w3.org/1999/xlink" x="0px" y="0px"
	 width="506.813px" height="86.04px" viewBox="0 0 506.813 86.04" enable-background="new 0 0 506.813 86.04" xml:space="preserve">
<g>
	<path fill="#87B946" d="M0.5,28.776c0,0,19.878-27.83,53.229-28.271c33.351-0.441,53.892,30.48,53.892,30.48
		S56.159,6.468,0.5,28.776"/>
	<path fill="none" stroke="#87B946" stroke-linecap="round" stroke-linejoin="round" stroke-miterlimit="10" d="M0.5,28.776
		c0,0,19.878-27.83,53.229-28.271c33.351-0.441,53.892,30.48,53.892,30.48S56.159,6.468,0.5,28.776z"/>
	<path fill="#87B946" d="M159.415,57.264c0,0-19.878,27.83-53.229,28.271S52.294,55.056,52.294,55.056
		S103.756,79.571,159.415,57.264"/>
	<path fill="none" stroke="#87B946" stroke-linecap="round" stroke-linejoin="round" stroke-miterlimit="10" d="M159.415,57.264
		c0,0-19.878,27.83-53.229,28.271S52.294,55.056,52.294,55.056S103.756,79.571,159.415,57.264z"/>
	<path fill="#F39419" d="M93.928,42.473c0-6.953-5.637-12.589-12.59-12.589S68.749,35.52,68.749,42.473s5.636,12.59,12.589,12.59
		S93.928,49.426,93.928,42.473"/>
	<polygon fill="#686969" points="181.697,31.182 196.982,7.503 183.066,7.503 183.066,4.411 201.532,4.411 201.532,6.576 
		186.247,30.254 201.666,30.254 201.666,33.391 181.697,33.391 	"/>
	<polygon fill="#686969" points="207.273,4.411 223.972,4.411 223.972,7.503 210.984,7.503 210.984,16.604 221.94,16.604 
		221.94,19.74 210.984,19.74 210.984,30.253 224.414,30.253 224.414,33.391 207.273,33.391 	"/>
	<path fill="#686969" d="M230.332,4.411h3.798l10.515,18.201l3.136,6.007h0.177c-0.177-2.916-0.486-6.184-0.486-9.232V4.411h3.491
		v28.98h-3.8l-10.469-18.246l-3.137-5.964h-0.177c0.177,2.916,0.442,6.009,0.442,9.057v15.153h-3.49V4.411z"/>
	<polygon fill="#686969" points="264.744,7.503 255.952,7.503 255.952,4.411 277.201,4.411 277.201,7.503 268.41,7.503 
		268.41,33.391 264.744,33.391 	"/>
	<path fill="#686969" d="M298.05,33.391l-6.979-12.237h-5.213v12.237h-3.711V4.411h9.101c5.875,0,10.116,2.12,10.116,8.128
		c0,4.506-2.563,7.201-6.494,8.217l7.377,12.634H298.05z M285.858,18.15h4.859c4.506,0,6.979-1.855,6.979-5.611
		c0-3.799-2.474-5.168-6.979-5.168h-4.859V18.15z"/>
	<path fill="#686969" d="M307.458,4.411h3.711v17.096c0,6.979,2.961,9.188,6.715,9.188c3.844,0,6.893-2.208,6.893-9.188V4.411h3.533
		v17.008c0,9.322-4.506,12.502-10.426,12.502c-5.919,0-10.426-3.18-10.426-12.502V4.411z"/>
	<path fill="#686969" d="M335.862,4.411h4.374l5.61,15.55l2.075,5.919h0.178l2.031-5.919l5.566-15.55h4.33v28.98h-3.49V17.442
		c0-2.561,0.309-6.007,0.485-8.57h-0.177l-2.297,6.451l-5.566,15.151h-2.12l-5.566-15.151l-2.297-6.451h-0.177
		c0.177,2.563,0.441,6.009,0.441,8.57v15.949h-3.401V4.411z"/>
	<path fill="#686969" d="M183.685,52.119h7.245c8.923,0,13.695,5.168,13.695,14.357c0,9.232-4.771,14.621-13.518,14.621h-7.422
		V52.119z M190.665,78.095c6.803,0,10.16-4.285,10.16-11.618c0-7.29-3.357-11.354-10.16-11.354h-3.27v22.972H190.665z"/>
	<polygon fill="#686969" points="210.719,52.119 227.418,52.119 227.418,55.211 214.43,55.211 214.43,64.312 225.386,64.312 
		225.386,67.448 214.43,67.448 214.43,77.962 227.859,77.962 227.859,81.099 210.719,81.099 	"/>
	<path fill="#686969" d="M249.681,81.099l-6.98-12.237h-5.213v12.237h-3.71v-28.98h9.101c5.875,0,10.115,2.121,10.115,8.128
		c0,4.508-2.562,7.202-6.493,8.218l7.377,12.635H249.681z M237.488,65.857h4.859c4.507,0,6.98-1.855,6.98-5.611
		c0-3.799-2.473-5.168-6.98-5.168h-4.859V65.857z"/>
	<path fill="#686969" d="M279.85,51.589c3.933,0,6.583,1.811,8.306,3.577l-2.12,2.342c-1.458-1.546-3.27-2.694-6.141-2.694
		c-5.875,0-9.63,4.506-9.63,11.707c0,7.289,3.445,11.883,9.63,11.883c2.076,0,4.108-0.662,5.257-1.723v-7.555h-6.14v-3.047h9.497
		v12.192c-1.899,1.854-5.124,3.356-9.012,3.356c-7.599,0-13.032-5.565-13.032-15.02C266.465,57.287,272.076,51.589,279.85,51.589"/>
	<polygon fill="#686969" points="295.178,52.119 311.876,52.119 311.876,55.211 298.889,55.211 298.889,64.312 309.844,64.312 
		309.844,67.448 298.889,67.448 298.889,77.962 312.318,77.962 312.318,81.099 295.178,81.099 	"/>
	<path fill="#686969" d="M318.369,74.781c2.076,2.164,4.948,3.622,7.996,3.622c3.8,0,6.052-1.899,6.052-4.727
		c0-2.96-2.12-3.888-4.858-5.124l-4.153-1.813c-2.694-1.148-5.876-3.224-5.876-7.465c0-4.418,3.888-7.686,9.145-7.686
		c3.446,0,6.494,1.456,8.527,3.577l-1.944,2.386c-1.767-1.679-3.932-2.74-6.583-2.74c-3.269,0-5.434,1.636-5.434,4.241
		c0,2.783,2.563,3.844,4.816,4.815l4.152,1.767c3.356,1.459,5.963,3.447,5.963,7.731c0,4.595-3.799,8.261-9.895,8.261
		c-4.064,0-7.599-1.679-10.117-4.285L318.369,74.781z"/>
	<path fill="#686969" d="M341.472,52.119h3.71v17.096c0,6.979,2.961,9.188,6.715,9.188c3.844,0,6.893-2.209,6.893-9.188V52.119
		h3.533v17.008c0,9.321-4.506,12.501-10.426,12.501c-5.919,0-10.425-3.18-10.425-12.501V52.119z"/>
	<path fill="#686969" d="M369.875,52.119h3.799l10.514,18.2l3.138,6.008h0.177c-0.177-2.916-0.487-6.185-0.487-9.232V52.119h3.491
		v28.979h-3.8l-10.47-18.246L373.1,56.89h-0.177c0.177,2.915,0.441,6.008,0.441,9.057v15.152h-3.49V52.119z"/>
	<path fill="#686969" d="M398.235,52.119h7.245c8.923,0,13.694,5.168,13.694,14.357c0,9.232-4.771,14.621-13.518,14.621h-7.422
		V52.119z M405.214,78.095c6.804,0,10.16-4.285,10.16-11.618c0-7.29-3.356-11.354-10.16-11.354h-3.269v22.972H405.214z"/>
	<polygon fill="#686969" points="425.269,52.119 428.98,52.119 428.98,64.267 442.454,64.267 442.454,52.119 446.121,52.119 
		446.121,81.099 442.454,81.099 442.454,67.448 428.98,67.448 428.98,81.099 425.269,81.099 	"/>
	<polygon fill="#686969" points="453.849,52.119 470.547,52.119 470.547,55.211 457.56,55.211 457.56,64.312 468.515,64.312 
		468.515,67.448 457.56,67.448 457.56,77.962 470.989,77.962 470.989,81.099 453.849,81.099 	"/>
	<rect x="476.907" y="52.118" fill="#686969" width="3.711" height="28.979"/>
	<polygon fill="#686969" points="494.355,55.211 485.564,55.211 485.564,52.119 506.813,52.119 506.813,55.211 498.022,55.211 
		498.022,81.099 494.355,81.099 	"/>
</g>
</svg>
